<svg viewBox="0 0 330 200" xmlns="http://www.w3.org/2000/svg"><g><g><g><g><g><line x1="70" y1="178" x2="65" y2="178" style="visibility: inherit;" fill="rgb(0, 0, 0)" stroke="rgb(204, 204, 204)" stroke-width="1px"></line><line x1="70" y1="158.22222222222226" x2="65" y2="158.22222222222226" style="visibility: inherit;" fill="rgb(0, 0, 0)" stroke="rgb(204, 204, 204)" stroke-width="1px"></line><line x1="70" y1="138.44444444444446" x2="65" y2="138.44444444444446" style="visibility: inherit;" fill="rgb(0, 0, 0)" stroke="rgb(204, 204, 204)" stroke-width="1px"></line><line x1="70" y1="118.66666666666667" x2="65" y2="118.66666666666667" style="visibility: inherit;" fill="rgb(0, 0, 0)" stroke="rgb(204, 204, 204)" stroke-width="1px"></line><line x1="70" y1="98.88888888888893" x2="65" y2="98.88888888888893" style="visibility: inherit;" fill="rgb(0, 0, 0)" stroke="rgb(204, 204, 204)" stroke-width="1px"></line><line x1="70" y1="79.11111111111113" x2="65" y2="79.11111111111113" style="visibility: inherit;" fill="rgb(0, 0, 0)" stroke="rgb(204, 204, 204)" stroke-width="1px"></line><line x1="70" y1="59.333333333333385" x2="65" y2="59.333333333333385" style="visibility: inherit;" fill="rgb(0, 0, 0)" stroke="rgb(204, 204, 204)" stroke-width="1px"></line><line x1="70" y1="39.5555555555556" x2="65" y2="39.5555555555556" style="visibility: inherit;" fill="rgb(0, 0, 0)" stroke="rgb(204, 204, 204)" stroke-width="1px"></line><line x1="70" y1="19.7777777777778" x2="65" y2="19.7777777777778" style="visibility: inherit;" fill="rgb(0, 0, 0)" stroke="rgb(204, 204, 204)" stroke-width="1px"></line><line x1="70" y1="0" x2="65" y2="0" style="visibility: inherit;" fill="rgb(0, 0, 0)" stroke="rgb(204, 204, 204)" stroke-width="1px"></line></g><g transform="translate(60, 0)"><text x="0" y="178" dx="0em" dy="0.3em" style="text-anchor: end; visibility: hidden; font-family: &quot;Helvetica Neue&quot;, sans-serif; font-size: 12px; font-weight: 200;" fill="rgb(50, 49, 63)" stroke="none" stroke-width="1px">0.650</text><text x="0" y="158.22222222222226" dx="0em" dy="0.3em" style="text-anchor: end; visibility: inherit; font-family: &quot;Helvetica Neue&quot;, sans-serif; font-size: 12px; font-weight: 200;" fill="rgb(50, 49, 63)" stroke="none" stroke-width="1px">0.700</text><text x="0" y="138.44444444444446" dx="0em" dy="0.3em" style="text-anchor: end; visibility: hidden; font-family: &quot;Helvetica Neue&quot;, sans-serif; font-size: 12px; font-weight: 200;" fill="rgb(50, 49, 63)" stroke="none" stroke-width="1px">0.750</text><text x="0" y="118.66666666666667" dx="0em" dy="0.3em" style="text-anchor: end; visibility: inherit; font-family: &quot;Helvetica Neue&quot;, sans-serif; font-size: 12px; font-weight: 200;" fill="rgb(50, 49, 63)" stroke="none" stroke-width="1px">0.800</text><text x="0" y="98.88888888888893" dx="0em" dy="0.3em" style="text-anchor: end; visibility: hidden; font-family: &quot;Helvetica Neue&quot;, sans-serif; font-size: 12px; font-weight: 200;" fill="rgb(50, 49, 63)" stroke="none" stroke-width="1px">0.850</text><text x="0" y="79.11111111111113" dx="0em" dy="0.3em" style="text-anchor: end; visibility: inherit; font-family: &quot;Helvetica Neue&quot;, sans-serif; font-size: 12px; font-weight: 200;" fill="rgb(50, 49, 63)" stroke="none" stroke-width="1px">0.900</text><text x="0" y="59.333333333333385" dx="0em" dy="0.3em" style="text-anchor: end; visibility: hidden; font-family: &quot;Helvetica Neue&quot;, sans-serif; font-size: 12px; font-weight: 200;" fill="rgb(50, 49, 63)" stroke="none" stroke-width="1px">0.950</text><text x="0" y="39.5555555555556" dx="0em" dy="0.3em" style="text-anchor: end; visibility: inherit; font-family: &quot;Helvetica Neue&quot;, sans-serif; font-size: 12px; font-weight: 200;" fill="rgb(50, 49, 63)" stroke="none" stroke-width="1px">1.00</text><text x="0" y="19.7777777777778" dx="0em" dy="0.3em" style="text-anchor: end; visibility: hidden; font-family: &quot;Helvetica Neue&quot;, sans-serif; font-size: 12px; font-weight: 200;" fill="rgb(50, 49, 63)" stroke="none" stroke-width="1px">1.05</text><text x="0" y="0" dx="0em" dy="0.3em" style="text-anchor: end; visibility: hidden; font-family: &quot;Helvetica Neue&quot;, sans-serif; font-size: 12px; font-weight: 200;" fill="rgb(50, 49, 63)" stroke="none" stroke-width="1px">1.10</text></g><line x1="70" y1="0" x2="70" y2="178" fill="rgb(0, 0, 0)" stroke="rgb(204, 204, 204)" stroke-width="1px"></line></g></g><g transform="translate(70, 0)" clip-path="url(#clip_0)"><clipPath id="clip_0"><rect width="260" height="177"></rect></clipPath><g><g><g><line x1="0" y1="0" x2="0" y2="178" fill="rgb(0, 0, 0)" stroke="rgb(60, 60, 60)" stroke-width="1px" opacity="0.25"></line><line x1="28.888888888888886" y1="0" x2="28.888888888888886" y2="178" fill="rgb(0, 0, 0)" stroke="rgb(60, 60, 60)" stroke-width="1px" opacity="0.25"></line><line x1="57.77777777777777" y1="0" x2="57.77777777777777" y2="178" fill="rgb(0, 0, 0)" stroke="rgb(60, 60, 60)" stroke-width="1px" opacity="0.25"></line><line x1="86.66666666666666" y1="0" x2="86.66666666666666" y2="178" fill="rgb(0, 0, 0)" stroke="rgb(60, 60, 60)" stroke-width="1px" opacity="0.25"></line><line x1="115.55555555555554" y1="0" x2="115.55555555555554" y2="178" fill="rgb(0, 0, 0)" stroke="rgb(60, 60, 60)" stroke-width="1px" opacity="0.25"></line><line x1="144.44444444444446" y1="0" x2="144.44444444444446" y2="178" fill="rgb(0, 0, 0)" stroke="rgb(60, 60, 60)" stroke-width="1px" opacity="0.25"></line><line x1="173.33333333333331" y1="0" x2="173.33333333333331" y2="178" fill="rgb(0, 0, 0)" stroke="rgb(60, 60, 60)" stroke-width="1px" opacity="0.25"></line><line x1="202.22222222222223" y1="0" x2="202.22222222222223" y2="178" fill="rgb(0, 0, 0)" stroke="rgb(60, 60, 60)" stroke-width="1px" opacity="0.25"></line><line x1="231.1111111111111" y1="0" x2="231.1111111111111" y2="178" fill="rgb(0, 0, 0)" stroke="rgb(60, 60, 60)" stroke-width="1px" opacity="0.25"></line><line x1="260" y1="0" x2="260" y2="178" fill="rgb(0, 0, 0)" stroke="rgb(60, 60, 60)" stroke-width="1px" opacity="0.25"></line></g><g><line x1="0" y1="178" x2="260" y2="178" fill="rgb(0, 0, 0)" stroke="rgb(60, 60, 60)" stroke-width="1px" opacity="0.25"></line><line x1="0" y1="158.22222222222226" x2="260" y2="158.22222222222226" fill="rgb(0, 0, 0)" stroke="rgb(60, 60, 60)" stroke-width="1px" opacity="0.25"></line><line x1="0" y1="138.44444444444446" x2="260" y2="138.44444444444446" fill="rgb(0, 0, 0)" stroke="rgb(60, 60, 60)" stroke-width="1px" opacity="0.25"></line><line x1="0" y1="118.66666666666667" x2="260" y2="118.66666666666667" fill="rgb(0, 0, 0)" stroke="rgb(60, 60, 60)" stroke-width="1px" opacity="0.25"></line><line x1="0" y1="98.88888888888893" x2="260" y2="98.88888888888893" fill="rgb(0, 0, 0)" stroke="rgb(60, 60, 60)" stroke-width="1px" opacity="0.25"></line><line x1="0" y1="79.11111111111113" x2="260" y2="79.11111111111113" fill="rgb(0, 0, 0)" stroke="rgb(60, 60, 60)" stroke-width="1px" opacity="0.25"></line><line x1="0" y1="59.333333333333385" x2="260" y2="59.333333333333385" fill="rgb(0, 0, 0)" stroke="rgb(60, 60, 60)" stroke-width="1px" opacity="0.25"></line><line x1="0" y1="39.5555555555556" x2="260" y2="39.5555555555556" fill="rgb(0, 0, 0)" stroke="rgb(60, 60, 60)" stroke-width="1px" opacity="0.25"></line><line x1="0" y1="19.7777777777778" x2="260" y2="19.7777777777778" fill="rgb(0, 0, 0)" stroke="rgb(60, 60, 60)" stroke-width="1px" opacity="0.25"></line><line x1="0" y1="0" x2="260" y2="0" fill="rgb(0, 0, 0)" stroke="rgb(60, 60, 60)" stroke-width="1px" opacity="0.25"></line></g></g></g><g><g><line x1="0" y1="435.1111111111111" x2="260" y2="435.1111111111111" fill="rgb(0, 0, 0)" stroke="rgb(153, 153, 153)" stroke-width="1.5px"></line></g></g><g><g><line x1="28.888888888888886" y1="0" x2="28.888888888888886" y2="178" fill="rgb(0, 0, 0)" stroke="rgb(153, 153, 153)" stroke-width="1.5px"></line></g></g><g><g><g><g><g><path stroke="rgb(255, 112, 67)" stroke-width="2px" d="M37.55555555555555,183.33774665662213L39,176.82258503242605L40.44444444444444,170.07718581403955L41.88888888888889,162.07873415341834L43.33333333333333,155.76788473808054L44.77777777777778,149.29337596398562L46.22222222222222,143.73278483024794L47.666666666666664,139.5233386726535L49.11111111111111,133.9086055901962L50.55555555555556,129.09311618660263L52,125.32848906641696L53.44444444444444,121.61818653726817L54.888888888888886,117.44260851493735L56.333333333333336,113.97890099513263L57.77777777777777,110.92575488559167L59.22222222222222,109.07939855097209L60.666666666666664,105.36514830553358L62.111111111111114,102.90561436269095L63.55555555555555,99.26587858381278L65,98.04491051734699L66.44444444444444,94.90439406455985L67.8888888888889,93.52688522445995L69.33333333333333,92.14132382390457L70.77777777777777,89.44658868328641L72.22222222222223,88.05919119218164L73.66666666666667,87.44703077848607L75.1111111111111,85.17708414664742L76.55555555555556,82.90314555960744L78,81.6231679541983L79.44444444444446,81.06320782197358L80.88888888888889,79.12818970889133L82.33333333333333,78.84429712766993L83.77777777777779,77.06015516095022L85.22222222222223,75.47243706881898L86.66666666666666,74.5769722265282L88.11111111111111,72.99750389087785L89.55555555555556,72.50318480726274L91,71.04616144291361L92.44444444444444,69.71085346387096L93.88888888888889,69.41689676868903L95.33333333333333,68.17450842746779L96.77777777777779,67.60341108294647L98.22222222222221,66.41419793451253L99.66666666666667,66.26810876622841L101.11111111111111,65.15174349957746L102.55555555555556,65.186693330174L104,64.12962976303702L105.44444444444444,63.12244717142734L106.88888888888889,63.15657082127723L108.33333333333334,62.200514418846566L109.77777777777777,61.28821300133093L111.22222222222221,60.417270456084836L112.66666666666667,60.88288900598357L114.11111111111111,60.076977811602504L115.55555555555554,59.26648938385857L117,58.49149440156873L118.44444444444444,57.75017174063164L119.8888888888889,57.833699331942455L121.33333333333333,57.123915361962986L122.77777777777777,57.309691739826704L124.22222222222223,56.62540932207274L125.66666666666667,55.96982279348903L127.1111111111111,56.19781158470772L128.55555555555557,55.56289689478426L130,54.9541227820193L131.44444444444443,55.4883654288885L132.88888888888889,54.92445609936422L134.33333333333334,54.34504867509382L135.7777777777778,53.78898626988649L137.22222222222223,53.255217948078055L138.66666666666666,53.275278232279305L140.11111111111111,52.763290667174914L141.55555555555554,52.27154894219886L143,51.79916946333742L144.44444444444446,51.345313239831995L145.88888888888889,52.2257321518517L147.33333333333334,51.757965329269126L148.77777777777777,51.308330590922935L150.2222222222222,50.87606284899229L151.66666666666669,50.460433783126106L153.11111111111111,50.06074975457429L154.55555555555554,50.82979999323304L156,50.45506381021087L157.44444444444443,50.0574787067894L158.8888888888889,49.67496156074873L160.33333333333334,49.306900987085385L161.77777777777777,48.952713282450276L163.22222222222223,48.61184096948264L164.66666666666666,48.320589704589054L166.1111111111111,48.923270113080974L167.55555555555557,48.5847149990976L169,48.25876726656813L170.44444444444446,47.94493111808765L171.88888888888889,47.64273211415471L173.33333333333331,47.35171612311416L174.7777777777778,47.071448331588954L176.22222222222223,46.80151231132831L177.66666666666666,46.541509138713536L179.11111111111111,47.71280391181645L180.55555555555554,47.420608012890796L182,47.13910962921037L183.44444444444446,46.86790090074683L184.88888888888889,46.60659065522364L186.33333333333334,47.008402146985304L187.77777777777777,46.74245537700182L189.2222222222222,46.48617390549694L190.66666666666666,46.239194201457934L192.11111111111111,46.00116726447666L193.55555555555557,45.771757984505285L195,46.708083014483805L196.44444444444443,46.48995832582824L197.88888888888889,46.2435743335669L199.33333333333334,46.00607056685317L200.7777777777778,45.7771181768922L202.22222222222223,45.556401104638326L203.66666666666666,45.343615541041316L205.11111111111111,45.13846941294511L206.55555555555554,44.94068189323201L208,44.74998293389265L209.44444444444446,44.566112820786884L210.88888888888889,44.460781195158575L212.33333333333334,44.32324959227765L213.77777777777777,44.15467890470978L215.2222222222222,43.99212635563589L216.66666666666669,43.83537306567885L218.11111111111111,43.684208395343944L219.55555555555554,43.53842961554986L221,43.39784159264477L222.44444444444443,43.2622564871846L223.8888888888889,43.13149346578976L225.33333333333334,43.005378425439886L226.77777777777777,43.027153139599676L228.22222222222223,44.19513626503317L229.66666666666666,44.03163576538773L231.1111111111111,43.87393498752857L232.55555555555557,43.72182557962802L234,43.57510685621307L235.44444444444446,43.43358550357493L236.88888888888889,43.297075297352194L238.33333333333331,43.16539683172698L239.7777777777778,43.75397757364772L241.22222222222223,43.606275220768254L242.66666666666666,43.463794812128754L244.11111111111111,43.32634995209423" style="fill: none;" fill="none"></path></g></g></g></g><g opacity="0.2"><g><g><g><path stroke="rgb(255, 112, 67)" stroke-width="2px" d="M33.22222222222222,191.0665428373549L34.666666666666664,158.52728907267254L36.111111111111114,163.6115401056078L37.55555555555555,149.3756136364407L39,137.17338758044775L40.44444444444444,123.95428774091934L41.88888888888889,101.5835360421075L43.33333333333333,103.61726003222998L44.77777777777778,91.415033976237L46.22222222222222,90.39816019270157L47.666666666666664,96.49928500917225L49.11111111111111,73.11168310377334L50.55555555555556,74.1285333103604L52,80.22965812683107L53.44444444444444,75.14538351694746L54.888888888888886,62.94315746095448L56.333333333333336,67.01055828730269L57.77777777777777,68.0274320708381L59.22222222222222,82.26335854000517L60.666666666666664,49.72408119837445L62.111111111111114,64.97685787412857L63.55555555555555,41.589255968729674L65,78.1959341367086L66.44444444444444,42.60610617531674L67.8888888888889,70.0611324840122L69.33333333333333,68.0274320708381L70.77777777777777,41.589255968729674L72.22222222222223,62.94315746095448L73.66666666666667,76.16223372353451L75.1111111111111,42.60610617531674L76.55555555555556,39.5555555555556L78,56.84205622143219L79.44444444444446,70.0611324840122L80.88888888888889,40.57240576214264L82.33333333333333,73.11168310377334L83.77777777777779,40.57240576214264L85.22222222222223,42.60610617531674L86.66666666666666,55.82518243789674L88.11111111111111,39.5555555555556L89.55555555555556,61.92630725436743L91,39.5555555555556L92.44444444444444,40.57240576214264L93.88888888888889,62.94315746095448L95.33333333333333,40.57240576214264L96.77777777777779,54.808332231309706L98.22222222222221,39.5555555555556L99.66666666666667,62.94315746095448L101.11111111111111,39.5555555555556L102.55555555555556,65.99370808071563L104,39.5555555555556L105.44444444444444,39.5555555555556L106.88888888888889,63.96000766754152L108.33333333333334,39.5555555555556L109.77777777777777,39.5555555555556L111.22222222222221,39.5555555555556L112.66666666666667,72.0948328971863L114.11111111111111,40.57240576214264L115.55555555555554,39.5555555555556L117,39.5555555555556L118.44444444444444,39.5555555555556L119.8888888888889,59.89260684119333L121.33333333333333,39.5555555555556L122.77777777777777,61.92630725436743L124.22222222222223,39.5555555555556L125.66666666666667,39.5555555555556L127.1111111111111,61.92630725436743L128.55555555555557,39.5555555555556L130,39.5555555555556L131.44444444444443,69.04428227742515L132.88888888888889,40.57240576214264L134.33333333333334,39.5555555555556L135.7777777777778,39.5555555555556L137.22222222222223,39.5555555555556L138.66666666666666,53.791482024722654L140.11111111111111,39.5555555555556L141.55555555555554,39.5555555555556L143,39.5555555555556L144.44444444444446,39.5555555555556L145.88888888888889,75.14538351694746L147.33333333333334,39.5555555555556L148.77777777777777,39.5555555555556L150.2222222222222,39.5555555555556L151.66666666666669,39.5555555555556L153.11111111111111,39.5555555555556L154.55555555555554,71.07798269059926L156,40.57240576214264L157.44444444444443,39.5555555555556L158.8888888888889,39.5555555555556L160.33333333333334,39.5555555555556L161.77777777777777,39.5555555555556L163.22222222222223,39.5555555555556L164.66666666666666,40.57240576214264L166.1111111111111,64.97685787412857L167.55555555555557,39.5555555555556L169,39.5555555555556L170.44444444444446,39.5555555555556L171.88888888888889,39.5555555555556L173.33333333333331,39.5555555555556L174.7777777777778,39.5555555555556L176.22222222222223,39.5555555555556L177.66666666666666,39.5555555555556L179.11111111111111,79.21280792024403L180.55555555555554,39.5555555555556L182,39.5555555555556L183.44444444444446,39.5555555555556L184.88888888888889,39.5555555555556L186.33333333333334,57.85890642801924L187.77777777777777,39.5555555555556L189.2222222222222,39.5555555555556L190.66666666666666,39.5555555555556L192.11111111111111,39.5555555555556L193.55555555555557,39.5555555555556L195,72.0948328971863L196.44444444444443,40.57240576214264L197.88888888888889,39.5555555555556L199.33333333333334,39.5555555555556L200.7777777777778,39.5555555555556L202.22222222222223,39.5555555555556L203.66666666666666,39.5555555555556L205.11111111111111,39.5555555555556L206.55555555555554,39.5555555555556L208,39.5555555555556L209.44444444444446,39.5555555555556L210.88888888888889,41.589255968729674L212.33333333333334,40.57240576214264L213.77777777777777,39.5555555555556L215.2222222222222,39.5555555555556L216.66666666666669,39.5555555555556L218.11111111111111,39.5555555555556L219.55555555555554,39.5555555555556L221,39.5555555555556L222.44444444444443,39.5555555555556L223.8888888888889,39.5555555555556L225.33333333333334,39.5555555555556L226.77777777777777,43.622956381903776L228.22222222222223,76.16223372353451L229.66666666666666,39.5555555555556L231.1111111111111,39.5555555555556L232.55555555555557,39.5555555555556L234,39.5555555555556L235.44444444444446,39.5555555555556L236.88888888888889,39.5555555555556L238.33333333333331,39.5555555555556L239.7777777777778,59.89260684119333L241.22222222222223,39.5555555555556L242.66666666666666,39.5555555555556L244.11111111111111,39.5555555555556" style="fill: none;" fill="none"></path></g></g></g></g></g></g><g transform="translate(70, 178)" clip-path="url(#clip_1)"><clipPath id="clip_1"><rect width="260" height="21"></rect></clipPath><g><g><line x1="0" y1="0" x2="0" y2="5" style="visibility: inherit;" fill="rgb(0, 0, 0)" stroke="rgb(204, 204, 204)" stroke-width="1px"></line><line x1="28.888888888888886" y1="0" x2="28.888888888888886" y2="5" style="visibility: inherit;" fill="rgb(0, 0, 0)" stroke="rgb(204, 204, 204)" stroke-width="1px"></line><line x1="57.77777777777777" y1="0" x2="57.77777777777777" y2="5" style="visibility: inherit;" fill="rgb(0, 0, 0)" stroke="rgb(204, 204, 204)" stroke-width="1px"></line><line x1="86.66666666666666" y1="0" x2="86.66666666666666" y2="5" style="visibility: inherit;" fill="rgb(0, 0, 0)" stroke="rgb(204, 204, 204)" stroke-width="1px"></line><line x1="115.55555555555554" y1="0" x2="115.55555555555554" y2="5" style="visibility: inherit;" fill="rgb(0, 0, 0)" stroke="rgb(204, 204, 204)" stroke-width="1px"></line><line x1="144.44444444444446" y1="0" x2="144.44444444444446" y2="5" style="visibility: inherit;" fill="rgb(0, 0, 0)" stroke="rgb(204, 204, 204)" stroke-width="1px"></line><line x1="173.33333333333331" y1="0" x2="173.33333333333331" y2="5" style="visibility: inherit;" fill="rgb(0, 0, 0)" stroke="rgb(204, 204, 204)" stroke-width="1px"></line><line x1="202.22222222222223" y1="0" x2="202.22222222222223" y2="5" style="visibility: inherit;" fill="rgb(0, 0, 0)" stroke="rgb(204, 204, 204)" stroke-width="1px"></line><line x1="231.1111111111111" y1="0" x2="231.1111111111111" y2="5" style="visibility: inherit;" fill="rgb(0, 0, 0)" stroke="rgb(204, 204, 204)" stroke-width="1px"></line><line x1="260" y1="0" x2="260" y2="5" style="visibility: inherit;" fill="rgb(0, 0, 0)" stroke="rgb(204, 204, 204)" stroke-width="1px"></line></g><g transform="translate(0, 8)"><text x="0" y="0" dx="0em" dy="0.95em" style="text-anchor: middle; visibility: hidden; font-family: &quot;Helvetica Neue&quot;, sans-serif; font-size: 12px; font-weight: 200;" fill="rgb(50, 49, 63)" stroke="none" stroke-width="1px">-20.00</text><text x="28.888888888888886" y="0" dx="0em" dy="0.95em" style="text-anchor: middle; visibility: inherit; font-family: &quot;Helvetica Neue&quot;, sans-serif; font-size: 12px; font-weight: 200;" fill="rgb(50, 49, 63)" stroke="none" stroke-width="1px">0.000</text><text x="57.77777777777777" y="0" dx="0em" dy="0.95em" style="text-anchor: middle; visibility: hidden; font-family: &quot;Helvetica Neue&quot;, sans-serif; font-size: 12px; font-weight: 200;" fill="rgb(50, 49, 63)" stroke="none" stroke-width="1px">20.00</text><text x="86.66666666666666" y="0" dx="0em" dy="0.95em" style="text-anchor: middle; visibility: inherit; font-family: &quot;Helvetica Neue&quot;, sans-serif; font-size: 12px; font-weight: 200;" fill="rgb(50, 49, 63)" stroke="none" stroke-width="1px">40.00</text><text x="115.55555555555554" y="0" dx="0em" dy="0.95em" style="text-anchor: middle; visibility: hidden; font-family: &quot;Helvetica Neue&quot;, sans-serif; font-size: 12px; font-weight: 200;" fill="rgb(50, 49, 63)" stroke="none" stroke-width="1px">60.00</text><text x="144.44444444444446" y="0" dx="0em" dy="0.95em" style="text-anchor: middle; visibility: inherit; font-family: &quot;Helvetica Neue&quot;, sans-serif; font-size: 12px; font-weight: 200;" fill="rgb(50, 49, 63)" stroke="none" stroke-width="1px">80.00</text><text x="173.33333333333331" y="0" dx="0em" dy="0.95em" style="text-anchor: middle; visibility: hidden; font-family: &quot;Helvetica Neue&quot;, sans-serif; font-size: 12px; font-weight: 200;" fill="rgb(50, 49, 63)" stroke="none" stroke-width="1px">100.0</text><text x="202.22222222222223" y="0" dx="0em" dy="0.95em" style="text-anchor: middle; visibility: inherit; font-family: &quot;Helvetica Neue&quot;, sans-serif; font-size: 12px; font-weight: 200;" fill="rgb(50, 49, 63)" stroke="none" stroke-width="1px">120.0</text><text x="231.1111111111111" y="0" dx="0em" dy="0.95em" style="text-anchor: middle; visibility: hidden; font-family: &quot;Helvetica Neue&quot;, sans-serif; font-size: 12px; font-weight: 200;" fill="rgb(50, 49, 63)" stroke="none" stroke-width="1px">140.0</text><text x="260" y="0" dx="0em" dy="0.95em" style="text-anchor: middle; visibility: hidden; font-family: &quot;Helvetica Neue&quot;, sans-serif; font-size: 12px; font-weight: 200;" fill="rgb(50, 49, 63)" stroke="none" stroke-width="1px">160.0</text></g><line x1="0" y1="0" x2="260" y2="0" fill="rgb(0, 0, 0)" stroke="rgb(204, 204, 204)" stroke-width="1px"></line></g></g></g></g></svg>