<svg viewBox="0 0 330 200" xmlns="http://www.w3.org/2000/svg"><g><g><g><g><g><line x1="94" y1="178" x2="89" y2="178" style="visibility: inherit;" fill="rgb(0, 0, 0)" stroke="rgb(204, 204, 204)" stroke-width="1px"></line><line x1="94" y1="160.2" x2="89" y2="160.2" style="visibility: inherit;" fill="rgb(0, 0, 0)" stroke="rgb(204, 204, 204)" stroke-width="1px"></line><line x1="94" y1="142.4" x2="89" y2="142.4" style="visibility: inherit;" fill="rgb(0, 0, 0)" stroke="rgb(204, 204, 204)" stroke-width="1px"></line><line x1="94" y1="124.6" x2="89" y2="124.6" style="visibility: inherit;" fill="rgb(0, 0, 0)" stroke="rgb(204, 204, 204)" stroke-width="1px"></line><line x1="94" y1="106.8" x2="89" y2="106.8" style="visibility: inherit;" fill="rgb(0, 0, 0)" stroke="rgb(204, 204, 204)" stroke-width="1px"></line><line x1="94" y1="89" x2="89" y2="89" style="visibility: inherit;" fill="rgb(0, 0, 0)" stroke="rgb(204, 204, 204)" stroke-width="1px"></line><line x1="94" y1="71.2" x2="89" y2="71.2" style="visibility: inherit;" fill="rgb(0, 0, 0)" stroke="rgb(204, 204, 204)" stroke-width="1px"></line><line x1="94" y1="53.400000000000006" x2="89" y2="53.400000000000006" style="visibility: inherit;" fill="rgb(0, 0, 0)" stroke="rgb(204, 204, 204)" stroke-width="1px"></line><line x1="94" y1="35.60000000000002" x2="89" y2="35.60000000000002" style="visibility: inherit;" fill="rgb(0, 0, 0)" stroke="rgb(204, 204, 204)" stroke-width="1px"></line><line x1="94" y1="17.799999999999983" x2="89" y2="17.799999999999983" style="visibility: inherit;" fill="rgb(0, 0, 0)" stroke="rgb(204, 204, 204)" stroke-width="1px"></line><line x1="94" y1="0" x2="89" y2="0" style="visibility: inherit;" fill="rgb(0, 0, 0)" stroke="rgb(204, 204, 204)" stroke-width="1px"></line></g><g transform="translate(84, 0)"><text x="0" y="178" dx="0em" dy="0.3em" style="text-anchor: end; visibility: hidden; font-family: &quot;Helvetica Neue&quot;, sans-serif; font-size: 12px; font-weight: 200;" fill="rgb(50, 49, 63)" stroke="none" stroke-width="1px">-0.0500</text><text x="0" y="160.2" dx="0em" dy="0.3em" style="text-anchor: end; visibility: inherit; font-family: &quot;Helvetica Neue&quot;, sans-serif; font-size: 12px; font-weight: 200;" fill="rgb(50, 49, 63)" stroke="none" stroke-width="1px">0.00</text><text x="0" y="142.4" dx="0em" dy="0.3em" style="text-anchor: end; visibility: hidden; font-family: &quot;Helvetica Neue&quot;, sans-serif; font-size: 12px; font-weight: 200;" fill="rgb(50, 49, 63)" stroke="none" stroke-width="1px">0.0500</text><text x="0" y="124.6" dx="0em" dy="0.3em" style="text-anchor: end; visibility: inherit; font-family: &quot;Helvetica Neue&quot;, sans-serif; font-size: 12px; font-weight: 200;" fill="rgb(50, 49, 63)" stroke="none" stroke-width="1px">0.100</text><text x="0" y="106.8" dx="0em" dy="0.3em" style="text-anchor: end; visibility: hidden; font-family: &quot;Helvetica Neue&quot;, sans-serif; font-size: 12px; font-weight: 200;" fill="rgb(50, 49, 63)" stroke="none" stroke-width="1px">0.150</text><text x="0" y="89" dx="0em" dy="0.3em" style="text-anchor: end; visibility: inherit; font-family: &quot;Helvetica Neue&quot;, sans-serif; font-size: 12px; font-weight: 200;" fill="rgb(50, 49, 63)" stroke="none" stroke-width="1px">0.200</text><text x="0" y="71.2" dx="0em" dy="0.3em" style="text-anchor: end; visibility: hidden; font-family: &quot;Helvetica Neue&quot;, sans-serif; font-size: 12px; font-weight: 200;" fill="rgb(50, 49, 63)" stroke="none" stroke-width="1px">0.250</text><text x="0" y="53.400000000000006" dx="0em" dy="0.3em" style="text-anchor: end; visibility: inherit; font-family: &quot;Helvetica Neue&quot;, sans-serif; font-size: 12px; font-weight: 200;" fill="rgb(50, 49, 63)" stroke="none" stroke-width="1px">0.300</text><text x="0" y="35.60000000000002" dx="0em" dy="0.3em" style="text-anchor: end; visibility: hidden; font-family: &quot;Helvetica Neue&quot;, sans-serif; font-size: 12px; font-weight: 200;" fill="rgb(50, 49, 63)" stroke="none" stroke-width="1px">0.350</text><text x="0" y="17.799999999999983" dx="0em" dy="0.3em" style="text-anchor: end; visibility: inherit; font-family: &quot;Helvetica Neue&quot;, sans-serif; font-size: 12px; font-weight: 200;" fill="rgb(50, 49, 63)" stroke="none" stroke-width="1px">0.400</text><text x="0" y="0" dx="0em" dy="0.3em" style="text-anchor: end; visibility: hidden; font-family: &quot;Helvetica Neue&quot;, sans-serif; font-size: 12px; font-weight: 200;" fill="rgb(50, 49, 63)" stroke="none" stroke-width="1px">0.450</text></g><line x1="94" y1="0" x2="94" y2="178" fill="rgb(0, 0, 0)" stroke="rgb(204, 204, 204)" stroke-width="1px"></line></g></g><g transform="translate(94, 0)" clip-path="url(#clip_0)"><clipPath id="clip_0"><rect width="236" height="178"></rect></clipPath><g><g><g><line x1="0" y1="0" x2="0" y2="178" fill="rgb(0, 0, 0)" stroke="rgb(60, 60, 60)" stroke-width="1px" opacity="0.25"></line><line x1="19.666666666666664" y1="0" x2="19.666666666666664" y2="178" fill="rgb(0, 0, 0)" stroke="rgb(60, 60, 60)" stroke-width="1px" opacity="0.25"></line><line x1="39.33333333333333" y1="0" x2="39.33333333333333" y2="178" fill="rgb(0, 0, 0)" stroke="rgb(60, 60, 60)" stroke-width="1px" opacity="0.25"></line><line x1="59" y1="0" x2="59" y2="178" fill="rgb(0, 0, 0)" stroke="rgb(60, 60, 60)" stroke-width="1px" opacity="0.25"></line><line x1="78.66666666666666" y1="0" x2="78.66666666666666" y2="178" fill="rgb(0, 0, 0)" stroke="rgb(60, 60, 60)" stroke-width="1px" opacity="0.25"></line><line x1="98.33333333333334" y1="0" x2="98.33333333333334" y2="178" fill="rgb(0, 0, 0)" stroke="rgb(60, 60, 60)" stroke-width="1px" opacity="0.25"></line><line x1="118" y1="0" x2="118" y2="178" fill="rgb(0, 0, 0)" stroke="rgb(60, 60, 60)" stroke-width="1px" opacity="0.25"></line><line x1="137.66666666666669" y1="0" x2="137.66666666666669" y2="178" fill="rgb(0, 0, 0)" stroke="rgb(60, 60, 60)" stroke-width="1px" opacity="0.25"></line><line x1="157.33333333333331" y1="0" x2="157.33333333333331" y2="178" fill="rgb(0, 0, 0)" stroke="rgb(60, 60, 60)" stroke-width="1px" opacity="0.25"></line><line x1="177" y1="0" x2="177" y2="178" fill="rgb(0, 0, 0)" stroke="rgb(60, 60, 60)" stroke-width="1px" opacity="0.25"></line><line x1="196.66666666666669" y1="0" x2="196.66666666666669" y2="178" fill="rgb(0, 0, 0)" stroke="rgb(60, 60, 60)" stroke-width="1px" opacity="0.25"></line><line x1="216.33333333333331" y1="0" x2="216.33333333333331" y2="178" fill="rgb(0, 0, 0)" stroke="rgb(60, 60, 60)" stroke-width="1px" opacity="0.25"></line><line x1="236" y1="0" x2="236" y2="178" fill="rgb(0, 0, 0)" stroke="rgb(60, 60, 60)" stroke-width="1px" opacity="0.25"></line></g><g><line x1="0" y1="178" x2="236" y2="178" fill="rgb(0, 0, 0)" stroke="rgb(60, 60, 60)" stroke-width="1px" opacity="0.25"></line><line x1="0" y1="160.2" x2="236" y2="160.2" fill="rgb(0, 0, 0)" stroke="rgb(60, 60, 60)" stroke-width="1px" opacity="0.25"></line><line x1="0" y1="142.4" x2="236" y2="142.4" fill="rgb(0, 0, 0)" stroke="rgb(60, 60, 60)" stroke-width="1px" opacity="0.25"></line><line x1="0" y1="124.6" x2="236" y2="124.6" fill="rgb(0, 0, 0)" stroke="rgb(60, 60, 60)" stroke-width="1px" opacity="0.25"></line><line x1="0" y1="106.8" x2="236" y2="106.8" fill="rgb(0, 0, 0)" stroke="rgb(60, 60, 60)" stroke-width="1px" opacity="0.25"></line><line x1="0" y1="89" x2="236" y2="89" fill="rgb(0, 0, 0)" stroke="rgb(60, 60, 60)" stroke-width="1px" opacity="0.25"></line><line x1="0" y1="71.2" x2="236" y2="71.2" fill="rgb(0, 0, 0)" stroke="rgb(60, 60, 60)" stroke-width="1px" opacity="0.25"></line><line x1="0" y1="53.400000000000006" x2="236" y2="53.400000000000006" fill="rgb(0, 0, 0)" stroke="rgb(60, 60, 60)" stroke-width="1px" opacity="0.25"></line><line x1="0" y1="35.60000000000002" x2="236" y2="35.60000000000002" fill="rgb(0, 0, 0)" stroke="rgb(60, 60, 60)" stroke-width="1px" opacity="0.25"></line><line x1="0" y1="17.799999999999983" x2="236" y2="17.799999999999983" fill="rgb(0, 0, 0)" stroke="rgb(60, 60, 60)" stroke-width="1px" opacity="0.25"></line><line x1="0" y1="0" x2="236" y2="0" fill="rgb(0, 0, 0)" stroke="rgb(60, 60, 60)" stroke-width="1px" opacity="0.25"></line></g></g></g><g><g><line x1="0" y1="160.2" x2="236" y2="160.2" fill="rgb(0, 0, 0)" stroke="rgb(153, 153, 153)" stroke-width="1.5px"></line></g></g><g><g><line x1="19.666666666666664" y1="0" x2="19.666666666666664" y2="178" fill="rgb(0, 0, 0)" stroke="rgb(153, 153, 153)" stroke-width="1.5px"></line></g></g><g><g><g><g><g><path stroke="rgb(255, 112, 67)" stroke-width="2px" d="M23.6,-1.5372549854185422L25.566666666666666,9.35213068808011L27.533333333333335,21.023649238081163L29.5,31.511395802760347L31.466666666666665,43.09118274515336L33.43333333333333,52.65894889677122L35.4,58.92435831413228L37.36666666666667,67.65238387393245L39.33333333333333,74.82975963002994L41.3,81.19741604624527L43.266666666666666,87.2432274609409L45.233333333333334,89.66787424298518L47.2,94.4741343486444L49.16666666666667,96.23178702386608L51.13333333333333,101.1053162507707L53.1,106.08417656058793L55.06666666666667,103.82426799648218L57.03333333333333,101.83787031682466L59,104.77099122498825L60.966666666666676,108.38245503131193L62.93333333333333,114.61884552984252L64.9,121.43688293916803L66.86666666666666,120.62414200128012L68.83333333333334,117.57968778598969L70.8,124.8034106252334L72.76666666666667,122.50440405097515L74.73333333333333,126.43768067378471L76.7,121.21177832274046L78.66666666666666,128.17027192019748L80.63333333333334,123.77915214805766L82.6,129.94902000422593L84.56666666666666,128.40009619351716L86.53333333333333,125.31429554470446L88.5,129.47053664392328L90.46666666666667,134.92368725464078L92.43333333333334,137.70581931920492L94.4,136.21326491405026L96.36666666666666,131.44262080637185L98.33333333333334,136.2856469804679L100.3,135.62327539632275L102.26666666666667,141.37006387262446L104.23333333333333,141.92739371252983L106.2,138.77259505574665L108.16666666666666,143.91774022067216L110.13333333333334,148.61073933619537L112.1,139.90163409249936L114.06666666666666,145.0543768566942L116.03333333333333,147.1618859044268L118,141.49676403380576L119.96666666666665,146.87990225804367L121.93333333333335,137.64551640001372L123.9,144.16575567694187L125.86666666666666,148.98482620395035L127.83333333333333,143.08992125778173L129.8,148.11157912303432L131.76666666666668,151.7988997246562L133.73333333333332,141.9571028979841L135.7,147.02800830344287L137.66666666666669,150.94524860067622L139.63333333333333,153.7593215519225L141.6,127.01580306685553L143.56666666666666,137.31967359423587L145.53333333333333,144.4391519661644L147.5,149.33467011733921L149.46666666666667,133.07962588202594L151.43333333333334,139.51251625221394L153.4,145.89554253869827L155.36666666666667,150.3518549467762L157.33333333333331,153.41832521126196L159.3,138.7382953763692L161.26666666666668,144.6171329574966L163.23333333333332,144.72372668064605L165.2,149.37245506236323L167.16666666666669,152.73039912280663L169.13333333333333,148.2308318361265L171.1,143.2852055293432L173.06666666666666,147.9821726313926L175.03333333333333,151.66933099575874L177,154.30944118993872L178.96666666666667,130.19404832934197L180.93333333333334,139.62592298200562L182.9,146.08600667410064L184.86666666666667,150.50581834827145L186.83333333333331,149.3604183906908L188.8,152.53206740390905L190.76666666666668,138.97374208508762L192.73333333333332,144.9816232632823L194.7,149.6486879182542L196.66666666666669,152.93971531677894L198.63333333333333,155.20537880636775L200.6,142.01858735082396L202.56666666666666,147.61241818027239L204.53333333333333,151.55545243275043L206.5,154.2746144535235L208.46666666666667,146.72597823967223L210.43333333333334,150.65182462989105L212.4,153.56675520242962L214.36666666666667,155.62574928592645L216.33333333333331,150.2175422991122L218.3,151.69493671816957L220.26666666666668,154.2455394046072L222.23333333333332,156.09876800315877L224.2,157.3662289318996L226.16666666666669,149.9664028140795L228.13333333333333,153.09983348810044L230.1,155.29638327723984L232.06666666666666,156.8216268511767L234.03333333333333,157.87505419637233" style="fill: none;" fill="none"></path></g></g></g></g><g opacity="0.2"><g><g><g><path stroke="rgb(255, 112, 67)" stroke-width="2px" d="M21.633333333333333,-3.105889725685131L23.6,8.477308225631731L25.566666666666666,25.33884854316713L27.533333333333335,40.6984794855118L29.5,50.749509406089786L31.466666666666665,65.5079776763916L33.43333333333333,71.84413166046143L35.4,71.78438885211945L37.36666666666667,85.8493376493454L39.33333333333333,89.95233495235443L41.3,94.71000458002091L43.266666666666666,100.13514174222946L45.233333333333334,94.85518671274185L47.2,104.77979762554169L49.16666666666667,100.00634617805481L51.13333333333333,111.58214921951294L53.1,116.79506997466088L55.06666666666667,98.96022106409073L57.03333333333333,97.56108714342118L59,111.08753372430802L60.966666666666676,116.16102806925774L62.93333333333333,128.0525523841381L64.9,136.12456597089766L66.86666666666666,118.87321735620499L68.83333333333334,111.02066124677658L70.8,140.36668598353862L72.76666666666667,117.55119155049324L74.73333333333333,134.91202090382575L76.7,109.95236201286316L78.66666666666666,143.16270060539244L80.63333333333334,114.31822873353958L82.6,143.2423908382654L84.56666666666666,125.06283648014069L86.53333333333333,118.66572488546372L88.5,138.42545185685157L90.46666666666667,146.67289164364337L92.43333333333334,143.70012461841105L94.4,132.9974474430084L96.36666666666666,121.16391800045967L98.33333333333334,146.7203034132719L100.3,134.19614694714545L102.26666666666667,153.75194429308175L104.23333333333333,143.12820207774638L106.2,131.97534782886504L108.16666666666666,155.0033365085721L110.13333333333334,158.7221535898745L112.1,121.13722152709961L114.06666666666666,156.15634300261735L116.03333333333333,151.70267034769057L118,129.29083905816077L119.96666666666665,158.47827258594333L121.93333333333335,117.7493475496769L123.9,158.21409453712403L125.86666666666666,159.36787089221178L127.83333333333333,130.38891155719756L129.8,158.93111325595527L131.76666666666668,159.7435053082183L133.73333333333332,120.75222204327584L135.7,157.95364991649984L137.66666666666669,159.38523321487008L139.63333333333333,159.82245033914222L141.6,69.39490993022919L143.56666666666666,159.5201264962554L145.53333333333333,159.77859590277075L147.5,159.88242689082398L149.46666666666667,98.05692805051804L151.43333333333334,153.37265544086694L153.4,159.64824586249887L155.36666666666667,159.95331038748844L157.33333333333331,160.02526272116228L159.3,107.10908282995224L161.26666666666668,157.28352433890103L163.23333333333332,144.95339075922965L165.2,159.38848498258739L167.16666666666669,159.96533853379077L169.13333333333333,138.53618055284022L171.1,132.6294870197773L173.06666666666666,158.1021364506334L175.03333333333333,159.61358703002333L177,159.99775432124733L178.96666666666667,78.23564667701721L180.93333333333334,159.9475961295422L182.9,160.00473589082247L184.86666666666667,160.02863025192636L186.83333333333331,146.89256927073L188.8,159.3656203251332L190.76666666666668,109.76132507324219L192.73333333333332,157.9260486409068L194.7,159.7042246985249L196.66666666666669,160.0304778189631L198.63333333333333,160.0869187539676L200.6,113.6066675901413L202.56666666666666,159.66474138693883L204.53333333333333,160.05101203667L206.5,160.13325060553615L208.46666666666667,130.46188191771506L210.43333333333334,159.110351710394L212.4,159.84718921203165L214.36666666666667,160.06200467718298L216.33333333333331,138.56515942215918L218.3,154.8780925169587L220.26666666666668,159.74100197507067L222.23333333333332,160.09168640319257L224.2,160.09706746290902L226.16666666666669,134.02292887568473L228.13333333333333,159.85104216430335L230.1,160.02901263365055L232.06666666666666,160.10787720133084L234.03333333333333,160.14474150479072" style="fill: none;" fill="none"></path></g></g></g></g></g></g><g transform="translate(94, 178)" clip-path="url(#clip_1)"><clipPath id="clip_1"><rect width="236" height="22"></rect></clipPath><g><g><line x1="0" y1="0" x2="0" y2="5" style="visibility: inherit;" fill="rgb(0, 0, 0)" stroke="rgb(204, 204, 204)" stroke-width="1px"></line><line x1="19.666666666666664" y1="0" x2="19.666666666666664" y2="5" style="visibility: inherit;" fill="rgb(0, 0, 0)" stroke="rgb(204, 204, 204)" stroke-width="1px"></line><line x1="39.33333333333333" y1="0" x2="39.33333333333333" y2="5" style="visibility: inherit;" fill="rgb(0, 0, 0)" stroke="rgb(204, 204, 204)" stroke-width="1px"></line><line x1="59" y1="0" x2="59" y2="5" style="visibility: inherit;" fill="rgb(0, 0, 0)" stroke="rgb(204, 204, 204)" stroke-width="1px"></line><line x1="78.66666666666666" y1="0" x2="78.66666666666666" y2="5" style="visibility: inherit;" fill="rgb(0, 0, 0)" stroke="rgb(204, 204, 204)" stroke-width="1px"></line><line x1="98.33333333333334" y1="0" x2="98.33333333333334" y2="5" style="visibility: inherit;" fill="rgb(0, 0, 0)" stroke="rgb(204, 204, 204)" stroke-width="1px"></line><line x1="118" y1="0" x2="118" y2="5" style="visibility: inherit;" fill="rgb(0, 0, 0)" stroke="rgb(204, 204, 204)" stroke-width="1px"></line><line x1="137.66666666666669" y1="0" x2="137.66666666666669" y2="5" style="visibility: inherit;" fill="rgb(0, 0, 0)" stroke="rgb(204, 204, 204)" stroke-width="1px"></line><line x1="157.33333333333331" y1="0" x2="157.33333333333331" y2="5" style="visibility: inherit;" fill="rgb(0, 0, 0)" stroke="rgb(204, 204, 204)" stroke-width="1px"></line><line x1="177" y1="0" x2="177" y2="5" style="visibility: inherit;" fill="rgb(0, 0, 0)" stroke="rgb(204, 204, 204)" stroke-width="1px"></line><line x1="196.66666666666669" y1="0" x2="196.66666666666669" y2="5" style="visibility: inherit;" fill="rgb(0, 0, 0)" stroke="rgb(204, 204, 204)" stroke-width="1px"></line><line x1="216.33333333333331" y1="0" x2="216.33333333333331" y2="5" style="visibility: inherit;" fill="rgb(0, 0, 0)" stroke="rgb(204, 204, 204)" stroke-width="1px"></line><line x1="236" y1="0" x2="236" y2="5" style="visibility: inherit;" fill="rgb(0, 0, 0)" stroke="rgb(204, 204, 204)" stroke-width="1px"></line></g><g transform="translate(0, 8)"><text x="0" y="0" dx="0em" dy="0.95em" style="text-anchor: middle; visibility: hidden; font-family: &quot;Helvetica Neue&quot;, sans-serif; font-size: 12px; font-weight: 200;" fill="rgb(50, 49, 63)" stroke="none" stroke-width="1px">-10.00</text><text x="19.666666666666664" y="0" dx="0em" dy="0.95em" style="text-anchor: middle; visibility: inherit; font-family: &quot;Helvetica Neue&quot;, sans-serif; font-size: 12px; font-weight: 200;" fill="rgb(50, 49, 63)" stroke="none" stroke-width="1px">0.000</text><text x="39.33333333333333" y="0" dx="0em" dy="0.95em" style="text-anchor: middle; visibility: hidden; font-family: &quot;Helvetica Neue&quot;, sans-serif; font-size: 12px; font-weight: 200;" fill="rgb(50, 49, 63)" stroke="none" stroke-width="1px">10.00</text><text x="59" y="0" dx="0em" dy="0.95em" style="text-anchor: middle; visibility: inherit; font-family: &quot;Helvetica Neue&quot;, sans-serif; font-size: 12px; font-weight: 200;" fill="rgb(50, 49, 63)" stroke="none" stroke-width="1px">20.00</text><text x="78.66666666666666" y="0" dx="0em" dy="0.95em" style="text-anchor: middle; visibility: hidden; font-family: &quot;Helvetica Neue&quot;, sans-serif; font-size: 12px; font-weight: 200;" fill="rgb(50, 49, 63)" stroke="none" stroke-width="1px">30.00</text><text x="98.33333333333334" y="0" dx="0em" dy="0.95em" style="text-anchor: middle; visibility: inherit; font-family: &quot;Helvetica Neue&quot;, sans-serif; font-size: 12px; font-weight: 200;" fill="rgb(50, 49, 63)" stroke="none" stroke-width="1px">40.00</text><text x="118" y="0" dx="0em" dy="0.95em" style="text-anchor: middle; visibility: hidden; font-family: &quot;Helvetica Neue&quot;, sans-serif; font-size: 12px; font-weight: 200;" fill="rgb(50, 49, 63)" stroke="none" stroke-width="1px">50.00</text><text x="137.66666666666669" y="0" dx="0em" dy="0.95em" style="text-anchor: middle; visibility: inherit; font-family: &quot;Helvetica Neue&quot;, sans-serif; font-size: 12px; font-weight: 200;" fill="rgb(50, 49, 63)" stroke="none" stroke-width="1px">60.00</text><text x="157.33333333333331" y="0" dx="0em" dy="0.95em" style="text-anchor: middle; visibility: hidden; font-family: &quot;Helvetica Neue&quot;, sans-serif; font-size: 12px; font-weight: 200;" fill="rgb(50, 49, 63)" stroke="none" stroke-width="1px">70.00</text><text x="177" y="0" dx="0em" dy="0.95em" style="text-anchor: middle; visibility: inherit; font-family: &quot;Helvetica Neue&quot;, sans-serif; font-size: 12px; font-weight: 200;" fill="rgb(50, 49, 63)" stroke="none" stroke-width="1px">80.00</text><text x="196.66666666666669" y="0" dx="0em" dy="0.95em" style="text-anchor: middle; visibility: hidden; font-family: &quot;Helvetica Neue&quot;, sans-serif; font-size: 12px; font-weight: 200;" fill="rgb(50, 49, 63)" stroke="none" stroke-width="1px">90.00</text><text x="216.33333333333331" y="0" dx="0em" dy="0.95em" style="text-anchor: middle; visibility: inherit; font-family: &quot;Helvetica Neue&quot;, sans-serif; font-size: 12px; font-weight: 200;" fill="rgb(50, 49, 63)" stroke="none" stroke-width="1px">100.0</text><text x="236" y="0" dx="0em" dy="0.95em" style="text-anchor: middle; visibility: hidden; font-family: &quot;Helvetica Neue&quot;, sans-serif; font-size: 12px; font-weight: 200;" fill="rgb(50, 49, 63)" stroke="none" stroke-width="1px">110.0</text></g><line x1="0" y1="0" x2="236" y2="0" fill="rgb(0, 0, 0)" stroke="rgb(204, 204, 204)" stroke-width="1px"></line></g></g></g></g></svg>