<svg viewBox="0 0 330 200" xmlns="http://www.w3.org/2000/svg"><g><g><g><g><g><line x1="82" y1="170.19902550651912" x2="77" y2="170.19902550651912" style="visibility: inherit;" fill="rgb(0, 0, 0)" stroke="rgb(204, 204, 204)" stroke-width="1px"></line><line x1="82" y1="156.89553026738474" x2="77" y2="156.89553026738474" style="visibility: inherit;" fill="rgb(0, 0, 0)" stroke="rgb(204, 204, 204)" stroke-width="1px"></line><line x1="82" y1="143.59203502825036" x2="77" y2="143.59203502825036" style="visibility: inherit;" fill="rgb(0, 0, 0)" stroke="rgb(204, 204, 204)" stroke-width="1px"></line><line x1="82" y1="130.288539789116" x2="77" y2="130.288539789116" style="visibility: inherit;" fill="rgb(0, 0, 0)" stroke="rgb(204, 204, 204)" stroke-width="1px"></line><line x1="82" y1="116.98504454998161" x2="77" y2="116.98504454998161" style="visibility: inherit;" fill="rgb(0, 0, 0)" stroke="rgb(204, 204, 204)" stroke-width="1px"></line><line x1="82" y1="103.68154931084723" x2="77" y2="103.68154931084723" style="visibility: inherit;" fill="rgb(0, 0, 0)" stroke="rgb(204, 204, 204)" stroke-width="1px"></line><line x1="82" y1="90.37805407171284" x2="77" y2="90.37805407171284" style="visibility: inherit;" fill="rgb(0, 0, 0)" stroke="rgb(204, 204, 204)" stroke-width="1px"></line><line x1="82" y1="77.07455883257848" x2="77" y2="77.07455883257848" style="visibility: inherit;" fill="rgb(0, 0, 0)" stroke="rgb(204, 204, 204)" stroke-width="1px"></line><line x1="82" y1="63.77106359344408" x2="77" y2="63.77106359344408" style="visibility: inherit;" fill="rgb(0, 0, 0)" stroke="rgb(204, 204, 204)" stroke-width="1px"></line><line x1="82" y1="50.46756835430972" x2="77" y2="50.46756835430972" style="visibility: inherit;" fill="rgb(0, 0, 0)" stroke="rgb(204, 204, 204)" stroke-width="1px"></line><line x1="82" y1="37.16407311517531" x2="77" y2="37.16407311517531" style="visibility: inherit;" fill="rgb(0, 0, 0)" stroke="rgb(204, 204, 204)" stroke-width="1px"></line><line x1="82" y1="23.860577876040935" x2="77" y2="23.860577876040935" style="visibility: inherit;" fill="rgb(0, 0, 0)" stroke="rgb(204, 204, 204)" stroke-width="1px"></line><line x1="82" y1="10.557082636906586" x2="77" y2="10.557082636906586" style="visibility: inherit;" fill="rgb(0, 0, 0)" stroke="rgb(204, 204, 204)" stroke-width="1px"></line></g><g transform="translate(72, 0)"><text x="0" y="170.19902550651912" dx="0em" dy="0.3em" style="text-anchor: end; visibility: inherit; font-family: &quot;Helvetica Neue&quot;, sans-serif; font-size: 12px; font-weight: 200;" fill="rgb(50, 49, 63)" stroke="none" stroke-width="1px">-0.200</text><text x="0" y="156.89553026738474" dx="0em" dy="0.3em" style="text-anchor: end; visibility: hidden; font-family: &quot;Helvetica Neue&quot;, sans-serif; font-size: 12px; font-weight: 200;" fill="rgb(50, 49, 63)" stroke="none" stroke-width="1px">-0.100</text><text x="0" y="143.59203502825036" dx="0em" dy="0.3em" style="text-anchor: end; visibility: inherit; font-family: &quot;Helvetica Neue&quot;, sans-serif; font-size: 12px; font-weight: 200;" fill="rgb(50, 49, 63)" stroke="none" stroke-width="1px">0.00</text><text x="0" y="130.288539789116" dx="0em" dy="0.3em" style="text-anchor: end; visibility: hidden; font-family: &quot;Helvetica Neue&quot;, sans-serif; font-size: 12px; font-weight: 200;" fill="rgb(50, 49, 63)" stroke="none" stroke-width="1px">0.100</text><text x="0" y="116.98504454998161" dx="0em" dy="0.3em" style="text-anchor: end; visibility: inherit; font-family: &quot;Helvetica Neue&quot;, sans-serif; font-size: 12px; font-weight: 200;" fill="rgb(50, 49, 63)" stroke="none" stroke-width="1px">0.200</text><text x="0" y="103.68154931084723" dx="0em" dy="0.3em" style="text-anchor: end; visibility: hidden; font-family: &quot;Helvetica Neue&quot;, sans-serif; font-size: 12px; font-weight: 200;" fill="rgb(50, 49, 63)" stroke="none" stroke-width="1px">0.300</text><text x="0" y="90.37805407171284" dx="0em" dy="0.3em" style="text-anchor: end; visibility: inherit; font-family: &quot;Helvetica Neue&quot;, sans-serif; font-size: 12px; font-weight: 200;" fill="rgb(50, 49, 63)" stroke="none" stroke-width="1px">0.400</text><text x="0" y="77.07455883257848" dx="0em" dy="0.3em" style="text-anchor: end; visibility: hidden; font-family: &quot;Helvetica Neue&quot;, sans-serif; font-size: 12px; font-weight: 200;" fill="rgb(50, 49, 63)" stroke="none" stroke-width="1px">0.500</text><text x="0" y="63.77106359344408" dx="0em" dy="0.3em" style="text-anchor: end; visibility: inherit; font-family: &quot;Helvetica Neue&quot;, sans-serif; font-size: 12px; font-weight: 200;" fill="rgb(50, 49, 63)" stroke="none" stroke-width="1px">0.600</text><text x="0" y="50.46756835430972" dx="0em" dy="0.3em" style="text-anchor: end; visibility: hidden; font-family: &quot;Helvetica Neue&quot;, sans-serif; font-size: 12px; font-weight: 200;" fill="rgb(50, 49, 63)" stroke="none" stroke-width="1px">0.700</text><text x="0" y="37.16407311517531" dx="0em" dy="0.3em" style="text-anchor: end; visibility: inherit; font-family: &quot;Helvetica Neue&quot;, sans-serif; font-size: 12px; font-weight: 200;" fill="rgb(50, 49, 63)" stroke="none" stroke-width="1px">0.800</text><text x="0" y="23.860577876040935" dx="0em" dy="0.3em" style="text-anchor: end; visibility: hidden; font-family: &quot;Helvetica Neue&quot;, sans-serif; font-size: 12px; font-weight: 200;" fill="rgb(50, 49, 63)" stroke="none" stroke-width="1px">0.900</text><text x="0" y="10.557082636906586" dx="0em" dy="0.3em" style="text-anchor: end; visibility: inherit; font-family: &quot;Helvetica Neue&quot;, sans-serif; font-size: 12px; font-weight: 200;" fill="rgb(50, 49, 63)" stroke="none" stroke-width="1px">1.00</text></g><line x1="82" y1="0" x2="82" y2="178" fill="rgb(0, 0, 0)" stroke="rgb(204, 204, 204)" stroke-width="1px"></line></g></g><g transform="translate(82, 0)" clip-path="url(#clip_0)"><clipPath id="clip_0"><rect width="247" height="177"></rect></clipPath><g><g><g><line x1="10.412288570186057" y1="0" x2="10.412288570186057" y2="178" fill="rgb(0, 0, 0)" stroke="rgb(60, 60, 60)" stroke-width="1px" opacity="0.25"></line><line x1="26.88802799243488" y1="0" x2="26.88802799243488" y2="178" fill="rgb(0, 0, 0)" stroke="rgb(60, 60, 60)" stroke-width="1px" opacity="0.25"></line><line x1="43.3637674146837" y1="0" x2="43.3637674146837" y2="178" fill="rgb(0, 0, 0)" stroke="rgb(60, 60, 60)" stroke-width="1px" opacity="0.25"></line><line x1="59.83950683693253" y1="0" x2="59.83950683693253" y2="178" fill="rgb(0, 0, 0)" stroke="rgb(60, 60, 60)" stroke-width="1px" opacity="0.25"></line><line x1="76.31524625918135" y1="0" x2="76.31524625918135" y2="178" fill="rgb(0, 0, 0)" stroke="rgb(60, 60, 60)" stroke-width="1px" opacity="0.25"></line><line x1="92.79098568143016" y1="0" x2="92.79098568143016" y2="178" fill="rgb(0, 0, 0)" stroke="rgb(60, 60, 60)" stroke-width="1px" opacity="0.25"></line><line x1="109.266725103679" y1="0" x2="109.266725103679" y2="178" fill="rgb(0, 0, 0)" stroke="rgb(60, 60, 60)" stroke-width="1px" opacity="0.25"></line><line x1="125.74246452592782" y1="0" x2="125.74246452592782" y2="178" fill="rgb(0, 0, 0)" stroke="rgb(60, 60, 60)" stroke-width="1px" opacity="0.25"></line><line x1="142.2182039481766" y1="0" x2="142.2182039481766" y2="178" fill="rgb(0, 0, 0)" stroke="rgb(60, 60, 60)" stroke-width="1px" opacity="0.25"></line><line x1="158.69394337042544" y1="0" x2="158.69394337042544" y2="178" fill="rgb(0, 0, 0)" stroke="rgb(60, 60, 60)" stroke-width="1px" opacity="0.25"></line><line x1="175.16968279267428" y1="0" x2="175.16968279267428" y2="178" fill="rgb(0, 0, 0)" stroke="rgb(60, 60, 60)" stroke-width="1px" opacity="0.25"></line><line x1="191.6454222149231" y1="0" x2="191.6454222149231" y2="178" fill="rgb(0, 0, 0)" stroke="rgb(60, 60, 60)" stroke-width="1px" opacity="0.25"></line><line x1="208.1211616371719" y1="0" x2="208.1211616371719" y2="178" fill="rgb(0, 0, 0)" stroke="rgb(60, 60, 60)" stroke-width="1px" opacity="0.25"></line><line x1="224.59690105942073" y1="0" x2="224.59690105942073" y2="178" fill="rgb(0, 0, 0)" stroke="rgb(60, 60, 60)" stroke-width="1px" opacity="0.25"></line><line x1="241.07264048166957" y1="0" x2="241.07264048166957" y2="178" fill="rgb(0, 0, 0)" stroke="rgb(60, 60, 60)" stroke-width="1px" opacity="0.25"></line></g><g><line x1="0" y1="170.19902550651912" x2="248" y2="170.19902550651912" fill="rgb(0, 0, 0)" stroke="rgb(60, 60, 60)" stroke-width="1px" opacity="0.25"></line><line x1="0" y1="156.89553026738474" x2="248" y2="156.89553026738474" fill="rgb(0, 0, 0)" stroke="rgb(60, 60, 60)" stroke-width="1px" opacity="0.25"></line><line x1="0" y1="143.59203502825036" x2="248" y2="143.59203502825036" fill="rgb(0, 0, 0)" stroke="rgb(60, 60, 60)" stroke-width="1px" opacity="0.25"></line><line x1="0" y1="130.288539789116" x2="248" y2="130.288539789116" fill="rgb(0, 0, 0)" stroke="rgb(60, 60, 60)" stroke-width="1px" opacity="0.25"></line><line x1="0" y1="116.98504454998161" x2="248" y2="116.98504454998161" fill="rgb(0, 0, 0)" stroke="rgb(60, 60, 60)" stroke-width="1px" opacity="0.25"></line><line x1="0" y1="103.68154931084723" x2="248" y2="103.68154931084723" fill="rgb(0, 0, 0)" stroke="rgb(60, 60, 60)" stroke-width="1px" opacity="0.25"></line><line x1="0" y1="90.37805407171284" x2="248" y2="90.37805407171284" fill="rgb(0, 0, 0)" stroke="rgb(60, 60, 60)" stroke-width="1px" opacity="0.25"></line><line x1="0" y1="77.07455883257848" x2="248" y2="77.07455883257848" fill="rgb(0, 0, 0)" stroke="rgb(60, 60, 60)" stroke-width="1px" opacity="0.25"></line><line x1="0" y1="63.77106359344408" x2="248" y2="63.77106359344408" fill="rgb(0, 0, 0)" stroke="rgb(60, 60, 60)" stroke-width="1px" opacity="0.25"></line><line x1="0" y1="50.46756835430972" x2="248" y2="50.46756835430972" fill="rgb(0, 0, 0)" stroke="rgb(60, 60, 60)" stroke-width="1px" opacity="0.25"></line><line x1="0" y1="37.16407311517531" x2="248" y2="37.16407311517531" fill="rgb(0, 0, 0)" stroke="rgb(60, 60, 60)" stroke-width="1px" opacity="0.25"></line><line x1="0" y1="23.860577876040935" x2="248" y2="23.860577876040935" fill="rgb(0, 0, 0)" stroke="rgb(60, 60, 60)" stroke-width="1px" opacity="0.25"></line><line x1="0" y1="10.557082636906586" x2="248" y2="10.557082636906586" fill="rgb(0, 0, 0)" stroke="rgb(60, 60, 60)" stroke-width="1px" opacity="0.25"></line></g></g></g><g><g><line x1="0" y1="143.59203502825036" x2="248" y2="143.59203502825036" fill="rgb(0, 0, 0)" stroke="rgb(153, 153, 153)" stroke-width="1.5px"></line></g></g><g><g><line x1="26.88802799243488" y1="0" x2="26.88802799243488" y2="178" fill="rgb(0, 0, 0)" stroke="rgb(153, 153, 153)" stroke-width="1.5px"></line></g></g><g><g><g><g><g><path stroke="rgb(255, 112, 67)" stroke-width="2px" d="M26.88802799243488,46.002364798549564L27.71181496354732,49.416561806056336L28.53560193465976,51.92318201487356L29.3593889057722,53.30857925750246L30.183175876884643,55.344044051841095L31.006962847997084,56.707761629859746L31.830749819109524,58.83362031779261L32.65453679022197,61.095405960549826L33.4783237613344,63.57140887239002L34.30211073244685,66.52372839115979L35.12589770355929,69.29677497908328L35.94968467467173,72.7014722111574L36.77347164578418,75.3005204340861L37.59725861689661,77.73894919455547L38.42104558800906,80.71961242451856L39.24483255912149,83.26118541797025L40.06861953023394,84.78978064830117L40.89240650134637,86.84556799192367L41.71619347245882,89.26014736912974L42.53998044357126,91.23050652272629L43.3637674146837,92.53836877607408L44.18755438579614,93.56193151512124L45.01134135690858,95.73347785928199L45.83512832802103,97.2154231602813L46.65891529913346,99.58008542120768L47.48270227024591,99.63806755286933L48.30648924135834,101.72297449767439L49.13027621247079,102.47540727074939L49.95406318358322,103.54414924487315L50.77785015469567,105.32457146269647L51.60163712580811,106.15659451392142L52.42542409692055,106.46877235550446L53.249211068033,108.04136761548577L54.07299803914544,109.66468428711909L54.89678501025789,109.92345889444982L55.72057198137032,110.1122298809036L56.54435895248277,111.53762345702357L57.3681459235952,111.42379072626707L58.19193289470765,112.73615343106503L59.01571986582008,113.97620052552163L59.83950683693253,114.11118932219117L60.66329380804496,115.3535455096544L61.48708077915741,115.19315985323641L62.31086775026984,116.33743826344435L63.1346547213823,117.4720362221755L63.95844169249473,117.08672891584102L64.78222866360717,118.12200903430764L65.60601563471961,118.57498637805955L66.42980260583207,119.58149827385367L67.25358957694449,119.42871442926426L68.07737654805693,120.38301031493836L68.90116351916937,119.53397574003083L69.72495049028183,120.4687314971679L70.54873746139425,121.36642129872524L71.3725244325067,121.40993877957567L72.19631140361915,122.26320614987364L73.02009837473159,123.08646882416514L73.84388534584403,123.89306423121448L74.66767231695646,122.97241484738666L75.49145928806891,123.74848707378462L76.31524625918135,124.50463993459968L77.13903323029379,125.24238362092802L77.96282020140622,125.94449299356334L78.78660717251867,124.73019048563907L79.61039414363111,125.44194452634963L80.43418111474355,124.84010455051657L81.25796808585599,125.53949482560432L82.08175505696843,126.21530289952955L82.90554202808087,125.60235685919054L83.72932899919331,126.26090619731178L84.55311597030577,126.89546436572877L85.3769029414182,126.42456433217149L86.20068991253063,127.00669905413335L87.02447688364309,127.59835229118532L87.84826385475553,128.1860603894226L88.67205082586796,128.75292165270662L89.4958377969804,128.24853500389992L90.31962476809285,128.8044223602586L91.14341173920529,129.34767669864073L91.96719871031773,129.87214059812356L92.79098568143016,130.37789242659903L93.61477265254261,128.05679150783433L94.43855962365505,128.61261210867906L95.2623465947675,129.15476043962911L96.08613356587993,129.67987529565858L96.90992053699237,130.18570670190778L97.73370750810481,130.67309059139166L98.55749447921725,128.82241284197968L99.3812814503297,129.3326562677696L100.20506842144214,129.83093600915223L101.02885539255458,130.32284119912032L101.85264236366702,130.79802047538666L102.67642933477947,131.25915129909805L103.5002163058919,131.70455702842239L104.32400327700434,132.0466259951857L105.14779024811679,131.1389674042943L105.97157721922923,131.57555004119476L106.79536419034166,132.0004113320955L107.6191511614541,132.41095136757997L108.44293813256655,132.80999780248155L109.266725103679,133.19496689472825L110.09051207479143,133.56715476909721L110.91429904590386,133.92615813316417L111.73808601701631,134.27221866559495L112.56187298812875,131.67273447486292L113.3856599592412,132.09377478825672L114.20944693035364,132.5010288140964L115.03323390146608,132.89450163478898L115.85702087257852,133.27218793711995L116.68080784369096,132.08153296846695L117.5045948148034,132.48530145004005L118.32838178591584,132.8773613796564L119.15216875702828,133.2568098592742L119.97595572814073,133.62306444158006L120.79974269925317,133.97643395576608L121.6235296703656,132.67345684540857L122.44731664147804,133.01473585083937L123.2711036125905,133.37690413127945L124.09489058370292,133.73436609836372L124.91867755481536,134.08006521783818L125.74246452592782,134.4149720189577L126.56625149704024,134.73853601284384L127.3900384681527,135.05126076232602L128.21382543926515,135.353105958327L129.03761241037756,135.64433929431843L129.86139938149003,135.92540016879673L130.68518635260247,135.9999575768996L131.50897332371488,136.1826921020115L132.33276029482735,136.44379379403614L133.15654726593976,136.69590072798383L133.9803342370522,136.93893033599187L134.80412120816467,137.1733385984736L135.62790817927709,137.39958043891608L136.45169515038955,137.61788735234245L137.275482121502,137.82845612426934L138.0992690926144,138.0315706548781L138.92305606372688,138.22757660411446L139.74684303483932,138.26647669815537L140.57063000595176,134.26875206943708L141.3944169770642,134.58623136181225L142.2182039481766,134.89997272862252L143.04199091928908,135.20463399375848L143.86577789040152,135.49879031186464L144.68956486151393,135.782797026103L145.5133518326264,136.05707649256982L146.33713880373884,136.32186025418216L147.16092577485128,133.91332369958758L147.98471274596372,134.25091307656038L148.80849971707616,134.57885218430127L149.6322866881886,134.89459704791977" style="fill: none;" fill="none"></path></g></g></g></g><g opacity="0.2"><g><g><g><path stroke="rgb(255, 112, 67)" stroke-width="2px" d="M26.88802799243488,46.002364798549564L27.71181496354732,52.711261918300494L28.53560193465976,56.676297920337916L29.3593889057722,57.18056661201925L30.183175876884643,62.79799169661182L31.006962847997084,62.84294403823432L31.830749819109524,70.11428859909054L32.65453679022197,74.85991261694394L33.4783237613344,80.50153060933158L34.30211073244685,88.85319436207715L35.12589770355929,92.21224996208011L35.94968467467173,103.13748483209572L36.77347164578418,100.22939185276381L37.59725861689661,102.6617266615475L38.42104558800906,112.99454850587655L39.24483255912149,112.27100928558059L40.06861953023394,103.10178225348304L40.89240650134637,112.59500473495875L41.71619347245882,120.77512562609017L42.53998044357126,117.94884329177589L43.3637674146837,110.91452737720293L44.18755438579614,108.42791315115139L45.01134135690858,128.26417662147298L45.83512832802103,120.06867249824634L46.65891529913346,137.05141332007477L47.48270227024591,100.58066875060769L48.30648924135834,136.44244349613314L49.13027621247079,115.29303928355571L49.95406318358322,122.14421147643449L50.77785015469567,136.9441013995839L51.60163712580811,121.21869398700414L52.42542409692055,112.22357699249532L53.249211068033,137.53409543184725L54.07299803914544,140.60961214477913L54.89678501025789,114.93348596895959L55.72057198137032,113.8211950287157L56.54435895248277,139.93899416689416L57.3681459235952,109.12517796961876L58.19193289470765,139.57547585396114L59.01571986582008,139.6456177425457L59.83950683693253,116.93796868796989L60.66329380804496,141.65784708851734L61.48708077915741,111.76140998679824L62.31086775026984,141.06869606133753L63.1346547213823,142.23068651248332L63.95844169249473,108.60119653825257L64.78222866360717,141.12279483465892L65.60601563471961,128.7236604822421L66.42980260583207,142.31379239194294L67.25358957694449,115.95139404022353L68.07737654805693,142.26324752188685L68.90116351916937,99.92920473037837L69.72495049028183,142.19945617247976L70.54873746139425,142.37131001921432L71.3725244325067,122.43455214085387L72.19631140361915,142.47352475729224L73.02009837473159,142.69806357208532L73.84388534584403,143.21347005337347L74.66767231695646,100.803475836704L75.49145928806891,142.53089977744264L76.31524625918135,142.8941424782639L77.13903323029379,143.2681381710673L77.96282020140622,143.1766797702298L78.78660717251867,94.79832590255332L79.61039414363111,143.05906693224222L80.43418111474355,109.88414620074015L81.25796808585599,142.98622356175844L82.08175505696843,143.13586768130793L82.90554202808087,110.20134210294218L83.72932899919331,142.8641195286982L84.55311597030577,142.94622344135732L85.3769029414182,114.47590816201256L86.20068991253063,141.82260366008998L87.02447688364309,142.7004222889105L87.84826385475553,143.2295202927978L88.67205082586796,143.30194528917573L89.4958377969804,115.26934196957814L90.31962476809285,143.14463969187767L91.14341173920529,143.39573937721318L91.96719871031773,143.46573172810696L92.79098568143016,143.51573475924744L93.61477265254261,67.6323468315504L94.43855962365505,143.1120387561972L95.2623465947675,143.32570148589375L96.08613356587993,143.43192288316382L96.90992053699237,143.45722773312497L97.73370750810481,143.48336581567912L98.55749447921725,80.09625777388348L99.3812814503297,142.78895306219493L100.20506842144214,142.99263524482313L101.02885539255458,143.3360835723654L101.85264236366702,143.38735385238454L102.67642933477947,143.49367843383615L103.5002163058919,143.53808312105934L104.32400327700434,141.14671789162037L105.14779024811679,106.96168100070075L105.97157721922923,143.2190729892772L106.79536419034166,143.3447386382815L107.6191511614541,143.38538677857366L108.44293813256655,143.48891775962525L109.266725103679,143.5080800881702L110.09051207479143,143.54805247080486L110.91429904590386,143.5629707700782L111.73808601701631,143.57042373059988L112.56187298812875,61.76397682627913L113.3856599592412,143.4269391607604L114.20944693035364,143.47243435571713L115.03323390146608,143.50333847109033L115.85702087257852,143.46344304488312L116.68080784369096,99.92912543536757L117.5045948148034,143.39667152723464L118.32838178591584,143.47983578609725L119.15216875702828,143.52525087295956L119.97595572814073,143.54099580723317L120.79974269925317,143.55153236797463L121.6235296703656,97.34560279424211L122.44731664147804,142.2733689105232L123.2711036125905,143.20785231160443L124.09489058370292,143.44290174202828L124.91867755481536,143.47410875814782L125.74246452592782,143.52040263351603L126.56625149704024,143.5399216618393L127.3900384681527,143.56185442370924L128.21382543926515,143.5713925177815L129.03761241037756,143.57721118412528L129.86139938149003,143.5844567865482L130.68518635260247,138.03252355038936L131.50897332371488,141.1663369640737L132.33276029482735,143.56744563184992L133.15654726593976,143.57669261972794L133.9803342370522,143.57434048984794L134.80412120816467,143.57556430651059L135.62790817927709,143.58081448996336L136.45169515038955,143.58423916472083L137.275482121502,143.58510218376057L138.0992690926144,143.5860840209341L138.92305606372688,143.58923532802936L139.74684303483932,139.33086734803612L140.57063000595176,24.8530849800203L141.3944169770642,143.27772026070636L142.2182039481766,143.49127001824348L143.04199091928908,143.54929270982046L143.86577789040152,143.55758733190186L144.68956486151393,143.56527311697846L145.5133518326264,143.5746245715806L146.33713880373884,143.5806580187989L147.16092577485128,67.8722935342311L147.98471274596372,143.509262056194L148.80849971707616,143.5742257018018L149.6322866881886,143.55704511741908" style="fill: none;" fill="none"></path></g></g></g></g></g></g><g transform="translate(82, 178)" clip-path="url(#clip_1)"><clipPath id="clip_1"><rect width="247" height="21"></rect></clipPath><g><g><line x1="10.412288570186057" y1="0" x2="10.412288570186057" y2="5" style="visibility: inherit;" fill="rgb(0, 0, 0)" stroke="rgb(204, 204, 204)" stroke-width="1px"></line><line x1="26.88802799243488" y1="0" x2="26.88802799243488" y2="5" style="visibility: inherit;" fill="rgb(0, 0, 0)" stroke="rgb(204, 204, 204)" stroke-width="1px"></line><line x1="43.3637674146837" y1="0" x2="43.3637674146837" y2="5" style="visibility: inherit;" fill="rgb(0, 0, 0)" stroke="rgb(204, 204, 204)" stroke-width="1px"></line><line x1="59.83950683693253" y1="0" x2="59.83950683693253" y2="5" style="visibility: inherit;" fill="rgb(0, 0, 0)" stroke="rgb(204, 204, 204)" stroke-width="1px"></line><line x1="76.31524625918135" y1="0" x2="76.31524625918135" y2="5" style="visibility: inherit;" fill="rgb(0, 0, 0)" stroke="rgb(204, 204, 204)" stroke-width="1px"></line><line x1="92.79098568143016" y1="0" x2="92.79098568143016" y2="5" style="visibility: inherit;" fill="rgb(0, 0, 0)" stroke="rgb(204, 204, 204)" stroke-width="1px"></line><line x1="109.266725103679" y1="0" x2="109.266725103679" y2="5" style="visibility: inherit;" fill="rgb(0, 0, 0)" stroke="rgb(204, 204, 204)" stroke-width="1px"></line><line x1="125.74246452592782" y1="0" x2="125.74246452592782" y2="5" style="visibility: inherit;" fill="rgb(0, 0, 0)" stroke="rgb(204, 204, 204)" stroke-width="1px"></line><line x1="142.2182039481766" y1="0" x2="142.2182039481766" y2="5" style="visibility: inherit;" fill="rgb(0, 0, 0)" stroke="rgb(204, 204, 204)" stroke-width="1px"></line><line x1="158.69394337042544" y1="0" x2="158.69394337042544" y2="5" style="visibility: inherit;" fill="rgb(0, 0, 0)" stroke="rgb(204, 204, 204)" stroke-width="1px"></line><line x1="175.16968279267428" y1="0" x2="175.16968279267428" y2="5" style="visibility: inherit;" fill="rgb(0, 0, 0)" stroke="rgb(204, 204, 204)" stroke-width="1px"></line><line x1="191.6454222149231" y1="0" x2="191.6454222149231" y2="5" style="visibility: inherit;" fill="rgb(0, 0, 0)" stroke="rgb(204, 204, 204)" stroke-width="1px"></line><line x1="208.1211616371719" y1="0" x2="208.1211616371719" y2="5" style="visibility: inherit;" fill="rgb(0, 0, 0)" stroke="rgb(204, 204, 204)" stroke-width="1px"></line><line x1="224.59690105942073" y1="0" x2="224.59690105942073" y2="5" style="visibility: inherit;" fill="rgb(0, 0, 0)" stroke="rgb(204, 204, 204)" stroke-width="1px"></line><line x1="241.07264048166957" y1="0" x2="241.07264048166957" y2="5" style="visibility: inherit;" fill="rgb(0, 0, 0)" stroke="rgb(204, 204, 204)" stroke-width="1px"></line></g><g transform="translate(0, 8)"><text x="10.412288570186057" y="0" dx="0em" dy="0.95em" style="text-anchor: middle; visibility: hidden; font-family: &quot;Helvetica Neue&quot;, sans-serif; font-size: 12px; font-weight: 200;" fill="rgb(50, 49, 63)" stroke="none" stroke-width="1px">-20.00</text><text x="26.88802799243488" y="0" dx="0em" dy="0.95em" style="text-anchor: middle; visibility: inherit; font-family: &quot;Helvetica Neue&quot;, sans-serif; font-size: 12px; font-weight: 200;" fill="rgb(50, 49, 63)" stroke="none" stroke-width="1px">0.000</text><text x="43.3637674146837" y="0" dx="0em" dy="0.95em" style="text-anchor: middle; visibility: hidden; font-family: &quot;Helvetica Neue&quot;, sans-serif; font-size: 12px; font-weight: 200;" fill="rgb(50, 49, 63)" stroke="none" stroke-width="1px">20.00</text><text x="59.83950683693253" y="0" dx="0em" dy="0.95em" style="text-anchor: middle; visibility: hidden; font-family: &quot;Helvetica Neue&quot;, sans-serif; font-size: 12px; font-weight: 200;" fill="rgb(50, 49, 63)" stroke="none" stroke-width="1px">40.00</text><text x="76.31524625918135" y="0" dx="0em" dy="0.95em" style="text-anchor: middle; visibility: inherit; font-family: &quot;Helvetica Neue&quot;, sans-serif; font-size: 12px; font-weight: 200;" fill="rgb(50, 49, 63)" stroke="none" stroke-width="1px">60.00</text><text x="92.79098568143016" y="0" dx="0em" dy="0.95em" style="text-anchor: middle; visibility: hidden; font-family: &quot;Helvetica Neue&quot;, sans-serif; font-size: 12px; font-weight: 200;" fill="rgb(50, 49, 63)" stroke="none" stroke-width="1px">80.00</text><text x="109.266725103679" y="0" dx="0em" dy="0.95em" style="text-anchor: middle; visibility: hidden; font-family: &quot;Helvetica Neue&quot;, sans-serif; font-size: 12px; font-weight: 200;" fill="rgb(50, 49, 63)" stroke="none" stroke-width="1px">100.0</text><text x="125.74246452592782" y="0" dx="0em" dy="0.95em" style="text-anchor: middle; visibility: inherit; font-family: &quot;Helvetica Neue&quot;, sans-serif; font-size: 12px; font-weight: 200;" fill="rgb(50, 49, 63)" stroke="none" stroke-width="1px">120.0</text><text x="142.2182039481766" y="0" dx="0em" dy="0.95em" style="text-anchor: middle; visibility: hidden; font-family: &quot;Helvetica Neue&quot;, sans-serif; font-size: 12px; font-weight: 200;" fill="rgb(50, 49, 63)" stroke="none" stroke-width="1px">140.0</text><text x="158.69394337042544" y="0" dx="0em" dy="0.95em" style="text-anchor: middle; visibility: hidden; font-family: &quot;Helvetica Neue&quot;, sans-serif; font-size: 12px; font-weight: 200;" fill="rgb(50, 49, 63)" stroke="none" stroke-width="1px">160.0</text><text x="175.16968279267428" y="0" dx="0em" dy="0.95em" style="text-anchor: middle; visibility: inherit; font-family: &quot;Helvetica Neue&quot;, sans-serif; font-size: 12px; font-weight: 200;" fill="rgb(50, 49, 63)" stroke="none" stroke-width="1px">180.0</text><text x="191.6454222149231" y="0" dx="0em" dy="0.95em" style="text-anchor: middle; visibility: hidden; font-family: &quot;Helvetica Neue&quot;, sans-serif; font-size: 12px; font-weight: 200;" fill="rgb(50, 49, 63)" stroke="none" stroke-width="1px">200.0</text><text x="208.1211616371719" y="0" dx="0em" dy="0.95em" style="text-anchor: middle; visibility: hidden; font-family: &quot;Helvetica Neue&quot;, sans-serif; font-size: 12px; font-weight: 200;" fill="rgb(50, 49, 63)" stroke="none" stroke-width="1px">220.0</text><text x="224.59690105942073" y="0" dx="0em" dy="0.95em" style="text-anchor: middle; visibility: inherit; font-family: &quot;Helvetica Neue&quot;, sans-serif; font-size: 12px; font-weight: 200;" fill="rgb(50, 49, 63)" stroke="none" stroke-width="1px">240.0</text><text x="241.07264048166957" y="0" dx="0em" dy="0.95em" style="text-anchor: middle; visibility: hidden; font-family: &quot;Helvetica Neue&quot;, sans-serif; font-size: 12px; font-weight: 200;" fill="rgb(50, 49, 63)" stroke="none" stroke-width="1px">260.0</text></g><line x1="0" y1="0" x2="248" y2="0" fill="rgb(0, 0, 0)" stroke="rgb(204, 204, 204)" stroke-width="1px"></line></g></g></g></g></svg>