<svg viewBox="0 0 330 200" xmlns="http://www.w3.org/2000/svg"><g><g><g><g><g><line x1="82" y1="174.75595369763857" x2="77" y2="174.75595369763857" style="visibility: inherit;" fill="rgb(0, 0, 0)" stroke="rgb(204, 204, 204)" stroke-width="1px"></line><line x1="82" y1="160.88751541132814" x2="77" y2="160.88751541132814" style="visibility: inherit;" fill="rgb(0, 0, 0)" stroke="rgb(204, 204, 204)" stroke-width="1px"></line><line x1="82" y1="147.01907712501767" x2="77" y2="147.01907712501767" style="visibility: inherit;" fill="rgb(0, 0, 0)" stroke="rgb(204, 204, 204)" stroke-width="1px"></line><line x1="82" y1="133.1506388387072" x2="77" y2="133.1506388387072" style="visibility: inherit;" fill="rgb(0, 0, 0)" stroke="rgb(204, 204, 204)" stroke-width="1px"></line><line x1="82" y1="119.28220055239676" x2="77" y2="119.28220055239676" style="visibility: inherit;" fill="rgb(0, 0, 0)" stroke="rgb(204, 204, 204)" stroke-width="1px"></line><line x1="82" y1="105.4137622660863" x2="77" y2="105.4137622660863" style="visibility: inherit;" fill="rgb(0, 0, 0)" stroke="rgb(204, 204, 204)" stroke-width="1px"></line><line x1="82" y1="91.54532397977584" x2="77" y2="91.54532397977584" style="visibility: inherit;" fill="rgb(0, 0, 0)" stroke="rgb(204, 204, 204)" stroke-width="1px"></line><line x1="82" y1="77.67688569346538" x2="77" y2="77.67688569346538" style="visibility: inherit;" fill="rgb(0, 0, 0)" stroke="rgb(204, 204, 204)" stroke-width="1px"></line><line x1="82" y1="63.808447407154915" x2="77" y2="63.808447407154915" style="visibility: inherit;" fill="rgb(0, 0, 0)" stroke="rgb(204, 204, 204)" stroke-width="1px"></line><line x1="82" y1="49.94000912084445" x2="77" y2="49.94000912084445" style="visibility: inherit;" fill="rgb(0, 0, 0)" stroke="rgb(204, 204, 204)" stroke-width="1px"></line><line x1="82" y1="36.071570834534015" x2="77" y2="36.071570834534015" style="visibility: inherit;" fill="rgb(0, 0, 0)" stroke="rgb(204, 204, 204)" stroke-width="1px"></line><line x1="82" y1="22.20313254822358" x2="77" y2="22.20313254822358" style="visibility: inherit;" fill="rgb(0, 0, 0)" stroke="rgb(204, 204, 204)" stroke-width="1px"></line><line x1="82" y1="8.334694261913086" x2="77" y2="8.334694261913086" style="visibility: inherit;" fill="rgb(0, 0, 0)" stroke="rgb(204, 204, 204)" stroke-width="1px"></line></g><g transform="translate(72, 0)"><text x="0" y="174.75595369763857" dx="0em" dy="0.3em" style="text-anchor: end; visibility: hidden; font-family: &quot;Helvetica Neue&quot;, sans-serif; font-size: 12px; font-weight: 200;" fill="rgb(50, 49, 63)" stroke="none" stroke-width="1px">0.0500</text><text x="0" y="160.88751541132814" dx="0em" dy="0.3em" style="text-anchor: end; visibility: inherit; font-family: &quot;Helvetica Neue&quot;, sans-serif; font-size: 12px; font-weight: 200;" fill="rgb(50, 49, 63)" stroke="none" stroke-width="1px">0.100</text><text x="0" y="147.01907712501767" dx="0em" dy="0.3em" style="text-anchor: end; visibility: hidden; font-family: &quot;Helvetica Neue&quot;, sans-serif; font-size: 12px; font-weight: 200;" fill="rgb(50, 49, 63)" stroke="none" stroke-width="1px">0.150</text><text x="0" y="133.1506388387072" dx="0em" dy="0.3em" style="text-anchor: end; visibility: inherit; font-family: &quot;Helvetica Neue&quot;, sans-serif; font-size: 12px; font-weight: 200;" fill="rgb(50, 49, 63)" stroke="none" stroke-width="1px">0.200</text><text x="0" y="119.28220055239676" dx="0em" dy="0.3em" style="text-anchor: end; visibility: hidden; font-family: &quot;Helvetica Neue&quot;, sans-serif; font-size: 12px; font-weight: 200;" fill="rgb(50, 49, 63)" stroke="none" stroke-width="1px">0.250</text><text x="0" y="105.4137622660863" dx="0em" dy="0.3em" style="text-anchor: end; visibility: inherit; font-family: &quot;Helvetica Neue&quot;, sans-serif; font-size: 12px; font-weight: 200;" fill="rgb(50, 49, 63)" stroke="none" stroke-width="1px">0.300</text><text x="0" y="91.54532397977584" dx="0em" dy="0.3em" style="text-anchor: end; visibility: hidden; font-family: &quot;Helvetica Neue&quot;, sans-serif; font-size: 12px; font-weight: 200;" fill="rgb(50, 49, 63)" stroke="none" stroke-width="1px">0.350</text><text x="0" y="77.67688569346538" dx="0em" dy="0.3em" style="text-anchor: end; visibility: inherit; font-family: &quot;Helvetica Neue&quot;, sans-serif; font-size: 12px; font-weight: 200;" fill="rgb(50, 49, 63)" stroke="none" stroke-width="1px">0.400</text><text x="0" y="63.808447407154915" dx="0em" dy="0.3em" style="text-anchor: end; visibility: hidden; font-family: &quot;Helvetica Neue&quot;, sans-serif; font-size: 12px; font-weight: 200;" fill="rgb(50, 49, 63)" stroke="none" stroke-width="1px">0.450</text><text x="0" y="49.94000912084445" dx="0em" dy="0.3em" style="text-anchor: end; visibility: inherit; font-family: &quot;Helvetica Neue&quot;, sans-serif; font-size: 12px; font-weight: 200;" fill="rgb(50, 49, 63)" stroke="none" stroke-width="1px">0.500</text><text x="0" y="36.071570834534015" dx="0em" dy="0.3em" style="text-anchor: end; visibility: hidden; font-family: &quot;Helvetica Neue&quot;, sans-serif; font-size: 12px; font-weight: 200;" fill="rgb(50, 49, 63)" stroke="none" stroke-width="1px">0.550</text><text x="0" y="22.20313254822358" dx="0em" dy="0.3em" style="text-anchor: end; visibility: inherit; font-family: &quot;Helvetica Neue&quot;, sans-serif; font-size: 12px; font-weight: 200;" fill="rgb(50, 49, 63)" stroke="none" stroke-width="1px">0.600</text><text x="0" y="8.334694261913086" dx="0em" dy="0.3em" style="text-anchor: end; visibility: hidden; font-family: &quot;Helvetica Neue&quot;, sans-serif; font-size: 12px; font-weight: 200;" fill="rgb(50, 49, 63)" stroke="none" stroke-width="1px">0.650</text></g><line x1="82" y1="0" x2="82" y2="178" fill="rgb(0, 0, 0)" stroke="rgb(204, 204, 204)" stroke-width="1px"></line></g></g><g transform="translate(82, 0)" clip-path="url(#clip_0)"><clipPath id="clip_0"><rect width="247" height="177"></rect></clipPath><g><g><g><line x1="27.88006398071593" y1="0" x2="27.88006398071593" y2="178" fill="rgb(0, 0, 0)" stroke="rgb(60, 60, 60)" stroke-width="1px" opacity="0.25"></line><line x1="62.23085244518529" y1="0" x2="62.23085244518529" y2="178" fill="rgb(0, 0, 0)" stroke="rgb(60, 60, 60)" stroke-width="1px" opacity="0.25"></line><line x1="96.58164090965462" y1="0" x2="96.58164090965462" y2="178" fill="rgb(0, 0, 0)" stroke="rgb(60, 60, 60)" stroke-width="1px" opacity="0.25"></line><line x1="130.932429374124" y1="0" x2="130.932429374124" y2="178" fill="rgb(0, 0, 0)" stroke="rgb(60, 60, 60)" stroke-width="1px" opacity="0.25"></line><line x1="165.28321783859334" y1="0" x2="165.28321783859334" y2="178" fill="rgb(0, 0, 0)" stroke="rgb(60, 60, 60)" stroke-width="1px" opacity="0.25"></line><line x1="199.6340063030627" y1="0" x2="199.6340063030627" y2="178" fill="rgb(0, 0, 0)" stroke="rgb(60, 60, 60)" stroke-width="1px" opacity="0.25"></line><line x1="233.98479476753204" y1="0" x2="233.98479476753204" y2="178" fill="rgb(0, 0, 0)" stroke="rgb(60, 60, 60)" stroke-width="1px" opacity="0.25"></line></g><g><line x1="0" y1="174.75595369763857" x2="248" y2="174.75595369763857" fill="rgb(0, 0, 0)" stroke="rgb(60, 60, 60)" stroke-width="1px" opacity="0.25"></line><line x1="0" y1="160.88751541132814" x2="248" y2="160.88751541132814" fill="rgb(0, 0, 0)" stroke="rgb(60, 60, 60)" stroke-width="1px" opacity="0.25"></line><line x1="0" y1="147.01907712501767" x2="248" y2="147.01907712501767" fill="rgb(0, 0, 0)" stroke="rgb(60, 60, 60)" stroke-width="1px" opacity="0.25"></line><line x1="0" y1="133.1506388387072" x2="248" y2="133.1506388387072" fill="rgb(0, 0, 0)" stroke="rgb(60, 60, 60)" stroke-width="1px" opacity="0.25"></line><line x1="0" y1="119.28220055239676" x2="248" y2="119.28220055239676" fill="rgb(0, 0, 0)" stroke="rgb(60, 60, 60)" stroke-width="1px" opacity="0.25"></line><line x1="0" y1="105.4137622660863" x2="248" y2="105.4137622660863" fill="rgb(0, 0, 0)" stroke="rgb(60, 60, 60)" stroke-width="1px" opacity="0.25"></line><line x1="0" y1="91.54532397977584" x2="248" y2="91.54532397977584" fill="rgb(0, 0, 0)" stroke="rgb(60, 60, 60)" stroke-width="1px" opacity="0.25"></line><line x1="0" y1="77.67688569346538" x2="248" y2="77.67688569346538" fill="rgb(0, 0, 0)" stroke="rgb(60, 60, 60)" stroke-width="1px" opacity="0.25"></line><line x1="0" y1="63.808447407154915" x2="248" y2="63.808447407154915" fill="rgb(0, 0, 0)" stroke="rgb(60, 60, 60)" stroke-width="1px" opacity="0.25"></line><line x1="0" y1="49.94000912084445" x2="248" y2="49.94000912084445" fill="rgb(0, 0, 0)" stroke="rgb(60, 60, 60)" stroke-width="1px" opacity="0.25"></line><line x1="0" y1="36.071570834534015" x2="248" y2="36.071570834534015" fill="rgb(0, 0, 0)" stroke="rgb(60, 60, 60)" stroke-width="1px" opacity="0.25"></line><line x1="0" y1="22.20313254822358" x2="248" y2="22.20313254822358" fill="rgb(0, 0, 0)" stroke="rgb(60, 60, 60)" stroke-width="1px" opacity="0.25"></line><line x1="0" y1="8.334694261913086" x2="248" y2="8.334694261913086" fill="rgb(0, 0, 0)" stroke="rgb(60, 60, 60)" stroke-width="1px" opacity="0.25"></line></g></g></g><g><g><line x1="0" y1="188.62439198394904" x2="248" y2="188.62439198394904" fill="rgb(0, 0, 0)" stroke="rgb(153, 153, 153)" stroke-width="1.5px"></line></g></g><g><g><line x1="-6.470724483753418" y1="0" x2="-6.470724483753418" y2="178" fill="rgb(0, 0, 0)" stroke="rgb(153, 153, 153)" stroke-width="1.5px"></line></g></g><g><g><g><g><g><path stroke="rgb(255, 112, 67)" stroke-width="2px" d="M2.11697263236392,-2.880642061917115L3.8345120555873877,2.6670267247549475L5.5520514788108555,9.077352512200349L7.269590902034324,16.05080444887767L8.987130325257791,25.51426974282697L10.704669748481258,33.83785973497885L12.422209171704726,42.94060131881855L14.139748594928193,49.13994591339747L15.85728801815166,55.632402906215404L17.574827441375128,62.92263076919798L19.2923668645986,68.99809335369346L21.009906287822066,74.17926845712873L22.727445711045533,79.20725534793168L24.444985134269,84.15638745922743L26.162524557492468,87.70564592306958L27.88006398071593,92.39832451483946L29.597603403939402,97.61432666962214L31.315142827162866,101.62071462378645L33.03268225038634,105.52340920135234L34.7502216736098,107.86262923675075L36.46776109683327,110.56391738628207L38.185300520056735,114.76845305347939L39.902839943280206,115.89612085172419L41.62037936650367,119.78776964456398L43.33791878972714,122.48020359513363L45.05545821295061,123.62500437342692L46.772997636174075,127.25031682166505L48.490537059397546,128.0109206870776L50.20807648262101,129.64268221062096L51.92561590584448,132.79325609456953L53.643155329067945,133.6872364801018L55.360694752291415,136.82735302636695L57.07823417551488,134.43182654288955L58.79577359873835,137.52619129613157L60.513313021961814,140.16347343232974L62.23085244518529,140.76511620938808L63.94839186840875,143.4990403771524L65.66593129163222,144.01007384153567L67.38347071485569,146.30709091894758L69.10101013807916,145.80600774801175L70.81854956130262,147.3539972317903L72.53608898452609,149.757253258604L74.25362840774955,150.0681250352543L75.97116783097303,151.98335529471694L77.6887072541965,151.85575751677396L79.40624667741996,153.85251880633444L81.12378610064343,155.93389644879184L82.8413255238669,153.0849187407882L84.55886494709037,155.1192762295372L86.27640437031383,157.10882074213302L87.9939437935373,158.99112715665134L89.71148321676077,154.9541462076731L91.42902263998424,156.82202231652985L93.1465620632077,158.67115214380038L94.86410148643117,160.44279587294076L96.58164090965462,158.26546333862387L98.29918033287811,160.05631106496622L100.01671975610158,161.75396712093033L101.73425917932504,163.35280206442187L103.45179860254851,164.86126922349698L105.16933802577198,166.28022024386297L106.88687744899545,159.0906156102065L108.6044168722189,159.98646850229426L110.32195629544239,161.52768791945934L112.03949571866586,163.09897944990666L113.75703514188933,164.59745783675345L115.47457456511279,160.785368263364L117.19211398833626,162.28410563812432L118.90965341155973,163.79044463590347L120.6271928347832,165.2383456598246L122.34473225800666,166.61146515583897L124.06227168123013,167.90945244833313L125.77981110445359,169.13568359303613L127.49735052767709,168.0361221657742L129.21488995090053,169.24390236001352L130.932429374124,170.382967143913L132.64996879734747,171.45996736877137L134.36750822057095,172.47384758018677L136.0850476437944,173.37105585867425L137.80258706701787,163.73872213822594L139.52012649024132,165.11380914372998L141.2376659134648,166.4332501607663L142.95520533668827,162.92776567746898L144.67274475991172,164.36732072782408L146.39028418313524,165.7649839157135L148.1078236063587,167.09122954954324L149.82536302958215,168.3524585377753L151.5429024528056,169.54376215151203L153.2604418760291,170.66749967663992L154.97798129925255,171.72689065537293L156.695520722476,167.6636274023399L158.41306014569946,165.40858873439979L160.13059956892297,166.74074347531555L161.84813899214643,168.00950663717262L163.5656784153699,169.20846132979446L165.28321783859334,170.3485756676347L167.00075726181683,171.42399718387196L168.7182966850403,172.4379819987124L170.43583610826374,173.3922755235361L172.15337553148723,174.2909342732688L173.87091495471068,175.13678467823266L175.58845437793417,154.36643403339647L177.30599380115763,156.36987895606106L179.0235332243811,158.2613633511907L180.74107264760457,160.04770407531208L182.45861207082802,161.72738197262663L184.17615149405148,163.31072801212545L185.89369091727497,164.8002057831519L187.61123034049842,166.20396583078835L189.3287697637219,167.5264437291241L191.0463091869454,168.77139915017466L192.76384861016885,168.6096438057224L194.4813880333923,166.70157444238825L196.19892745661576,167.99026750556175L197.91646687983925,169.20530166991477L199.6340063030627,170.34775477391392L201.35154572628616,171.42215837062892L203.06908514950962,172.43444706032238L204.78662457273313,173.38767392463353L206.5041639959566,174.28614290104943L208.22170341918005,175.13179322393202L209.9392428424035,175.92746560387724L211.656782265627,176.6760685202171L213.37432168885044,166.32224706723431L215.0918611120739,167.62856192936462L216.80940053529739,168.8594731198857L218.52693995852087,170.01777978954178L220.2444793817443,171.11314228648382L221.96201880496778,172.14401626995402L223.67955822819124,173.11485420778533L225.3970976514147,173.89568861873198L227.11463707463815,169.23658721067622L228.83217649786164,170.37586153552357L230.5497159210851,171.43674298095175L232.26725534430855,172.44778321502673L233.98479476753204,173.40090664774408L235.70233419075552,174.2978757030187L237.41987361397898,175.14227301328555L239.13741303720244,171.1379283442332L240.8549524604259,172.1679014781226L242.57249188364938,173.13746581983415L244.29003130687283,174.04947133810498L246.0075707300963,174.9082124896194L247.7251101533198,175.71666095185034L249.44264957654326,176.47763306418648" style="fill: none;" fill="none"></path></g></g></g></g><g opacity="0.2"><g><g><g><path stroke="rgb(255, 112, 67)" stroke-width="2px" d="M-1.318106214083015,0.23326312704307384L0.3994332091404525,1.2160686781026868L2.11697263236392,11.711110027377657L3.8345120555873877,29.71688408742827L5.5520514788108555,44.521443545181484L7.269590902034324,58.89565462712336L8.987130325257791,89.1324038442035L10.704669748481258,94.32431756691761L12.422209171704726,113.75197469628469L14.139748594928193,100.35370819169997L15.85728801815166,112.21253752212174L17.574827441375128,129.56682493107422L19.2923668645986,126.97760504991896L21.009906287822066,125.58261617089276L22.727445711045533,130.87900268413514L24.444985134269,136.67407039139528L26.162524557492468,126.48631800165643L27.88006398071593,145.0631151971188L29.597603403939402,157.60677096440426L31.315142827162866,148.7519383738262L33.03268225038634,152.39844670187955L34.7502216736098,136.50239312351647L36.46776109683327,144.22721301250877L38.185300520056735,168.03019573426403L39.902839943280206,130.39938755740016L41.62037936650367,170.54840247104053L43.33791878972714,158.0604817822958L45.05545821295061,138.9381255833378L46.772997636174075,176.29366922204508L48.490537059397546,138.40904531607816L50.20807648262101,152.16963736201942L51.92561590584448,176.68637730417674L53.643155329067945,146.24838560226777L55.360694752291415,181.30023591007367L57.07823417551488,100.25195912506923L58.79577359873835,181.98411379665743L60.513313021961814,178.30043790014562L62.23085244518529,149.5181314123726L63.94839186840875,183.49952877998882L65.66593129163222,151.52682612284988L67.38347071485569,180.26182082389278L69.10101013807916,138.36444485389552L70.81854956130262,170.44341717404293L72.53608898452609,185.7501415265425L74.25362840774955,154.74179987060236L75.97116783097303,180.88050344447603L77.6887072541965,149.9240696010233L79.40624667741996,184.1767125674564L81.12378610064343,187.6367639252536L82.8413255238669,109.56961605583638L84.55886494709037,186.2731006479869L87.9939437935373,187.9534137482891L89.71148321676077,92.70476405887008L91.42902263998424,185.6826107912934L94.86410148643117,187.9175608984172L96.58164090965462,124.44258686101308L98.29918033287811,187.91935396068044L105.16933802577198,188.47674573820973L106.88687744899545,46.494361997605466L108.6044168722189,174.0316340908839L110.32195629544239,185.71555638105482L113.75703514188933,188.15833787138791L115.47457456511279,100.79629059290845L117.19211398833626,185.88783837556906L125.77981110445359,188.5120176753021L127.49735052767709,150.65178745631906L129.21488995090053,188.3491006774039L136.0850476437944,187.588813765735L137.80258706701787,11.040123331744496L139.52012649024132,186.92048983052823L141.2376659134648,187.36453922984126L142.95520533668827,107.2999563576646L144.67274475991172,187.21814772406154L154.97798129925255,188.56766057807542L156.695520722476,103.05875866804271L158.41306014569946,129.54746541250657L160.13059956892297,187.9292071817053L191.0463091869454,188.60915678607887L192.76384861016885,166.03201153952492L194.4813880333923,136.29422043528066L196.19892745661576,188.52810938390817L211.656782265627,188.61036773982448L213.37432168885044,1.2563252346459706L215.0918611120739,188.4550139882579L225.3970976514147,186.34594812121583L227.11463707463815,94.94688893366491L228.83217649786164,188.54194485478962L237.41987361397898,188.60730114483667L239.13741303720244,107.28270472860795L240.8549524604259,188.5925150530807" style="fill: none;" fill="none"></path></g></g></g></g></g></g><g transform="translate(82, 178)" clip-path="url(#clip_1)"><clipPath id="clip_1"><rect width="247" height="21"></rect></clipPath><g><g><line x1="27.88006398071593" y1="0" x2="27.88006398071593" y2="5" style="visibility: inherit;" fill="rgb(0, 0, 0)" stroke="rgb(204, 204, 204)" stroke-width="1px"></line><line x1="62.23085244518529" y1="0" x2="62.23085244518529" y2="5" style="visibility: inherit;" fill="rgb(0, 0, 0)" stroke="rgb(204, 204, 204)" stroke-width="1px"></line><line x1="96.58164090965462" y1="0" x2="96.58164090965462" y2="5" style="visibility: inherit;" fill="rgb(0, 0, 0)" stroke="rgb(204, 204, 204)" stroke-width="1px"></line><line x1="130.932429374124" y1="0" x2="130.932429374124" y2="5" style="visibility: inherit;" fill="rgb(0, 0, 0)" stroke="rgb(204, 204, 204)" stroke-width="1px"></line><line x1="165.28321783859334" y1="0" x2="165.28321783859334" y2="5" style="visibility: inherit;" fill="rgb(0, 0, 0)" stroke="rgb(204, 204, 204)" stroke-width="1px"></line><line x1="199.6340063030627" y1="0" x2="199.6340063030627" y2="5" style="visibility: inherit;" fill="rgb(0, 0, 0)" stroke="rgb(204, 204, 204)" stroke-width="1px"></line><line x1="233.98479476753204" y1="0" x2="233.98479476753204" y2="5" style="visibility: inherit;" fill="rgb(0, 0, 0)" stroke="rgb(204, 204, 204)" stroke-width="1px"></line></g><g transform="translate(0, 8)"><text x="27.88006398071593" y="0" dx="0em" dy="0.95em" style="text-anchor: middle; visibility: inherit; font-family: &quot;Helvetica Neue&quot;, sans-serif; font-size: 12px; font-weight: 200;" fill="rgb(50, 49, 63)" stroke="none" stroke-width="1px">20.00</text><text x="62.23085244518529" y="0" dx="0em" dy="0.95em" style="text-anchor: middle; visibility: hidden; font-family: &quot;Helvetica Neue&quot;, sans-serif; font-size: 12px; font-weight: 200;" fill="rgb(50, 49, 63)" stroke="none" stroke-width="1px">40.00</text><text x="96.58164090965462" y="0" dx="0em" dy="0.95em" style="text-anchor: middle; visibility: inherit; font-family: &quot;Helvetica Neue&quot;, sans-serif; font-size: 12px; font-weight: 200;" fill="rgb(50, 49, 63)" stroke="none" stroke-width="1px">60.00</text><text x="130.932429374124" y="0" dx="0em" dy="0.95em" style="text-anchor: middle; visibility: hidden; font-family: &quot;Helvetica Neue&quot;, sans-serif; font-size: 12px; font-weight: 200;" fill="rgb(50, 49, 63)" stroke="none" stroke-width="1px">80.00</text><text x="165.28321783859334" y="0" dx="0em" dy="0.95em" style="text-anchor: middle; visibility: inherit; font-family: &quot;Helvetica Neue&quot;, sans-serif; font-size: 12px; font-weight: 200;" fill="rgb(50, 49, 63)" stroke="none" stroke-width="1px">100.0</text><text x="199.6340063030627" y="0" dx="0em" dy="0.95em" style="text-anchor: middle; visibility: hidden; font-family: &quot;Helvetica Neue&quot;, sans-serif; font-size: 12px; font-weight: 200;" fill="rgb(50, 49, 63)" stroke="none" stroke-width="1px">120.0</text><text x="233.98479476753204" y="0" dx="0em" dy="0.95em" style="text-anchor: middle; visibility: hidden; font-family: &quot;Helvetica Neue&quot;, sans-serif; font-size: 12px; font-weight: 200;" fill="rgb(50, 49, 63)" stroke="none" stroke-width="1px">140.0</text></g><line x1="0" y1="0" x2="248" y2="0" fill="rgb(0, 0, 0)" stroke="rgb(204, 204, 204)" stroke-width="1px"></line></g></g></g></g></svg>